<?xml version="1.0" encoding="UTF-8" standalone="no"?>
<svg
   xmlns:dc="http://purl.org/dc/elements/1.1/"
   xmlns:cc="http://creativecommons.org/ns#"
   xmlns:rdf="http://www.w3.org/1999/02/22-rdf-syntax-ns#"
   xmlns:svg="http://www.w3.org/2000/svg"
   xmlns="http://www.w3.org/2000/svg"
   xmlns:sodipodi="http://sodipodi.sourceforge.net/DTD/sodipodi-0.dtd"
   xmlns:inkscape="http://www.inkscape.org/namespaces/inkscape"
   class="svg-inline--fa fa-address-book fa-w-14 fa-3x"
   role="img"
   aria-hidden="true"
   viewBox="0 0 448 512"
   focusable="false"
   data-prefix="fas"
   data-icon="address-book"
   version="1.1"
   id="svg4"
   sodipodi:docname="addressBookDark.svg"
   inkscape:version="0.92.4 (5da689c313, 2019-01-14)">
  <metadata
     id="metadata10">
    <rdf:RDF>
      <cc:Work
         rdf:about="">
        <dc:format>image/svg+xml</dc:format>
        <dc:type
           rdf:resource="http://purl.org/dc/dcmitype/StillImage" />
        <dc:title />
      </cc:Work>
    </rdf:RDF>
  </metadata>
  <defs
     id="defs8" />
  <sodipodi:namedview
     pagecolor="#ffffff"
     bordercolor="#666666"
     borderopacity="1"
     objecttolerance="10"
     gridtolerance="10"
     guidetolerance="10"
     inkscape:pageopacity="0"
     inkscape:pageshadow="2"
     inkscape:window-width="1843"
     inkscape:window-height="824"
     id="namedview6"
     showgrid="false"
     inkscape:zoom="0.4609375"
     inkscape:cx="-138.30508"
     inkscape:cy="256"
     inkscape:window-x="0"
     inkscape:window-y="0"
     inkscape:window-maximized="0"
     inkscape:current-layer="svg4" />
  <path
     class=""
     d="m 436,160 c 6.6,0 12,-5.4 12,-12 v -40 c 0,-6.6 -5.4,-12 -12,-12 H 416 V 48 C 416,21.5 394.5,0 368,0 H 48 C 21.5,0 0,21.5 0,48 v 416 c 0,26.5 21.5,48 48,48 h 320 c 26.5,0 48,-21.5 48,-48 v -48 h 20 c 6.6,0 12,-5.4 12,-12 v -40 c 0,-6.6 -5.4,-12 -12,-12 h -20 v -64 h 20 c 6.6,0 12,-5.4 12,-12 v -40 c 0,-6.6 -5.4,-12 -12,-12 H 416 V 160 Z M 208,128 c 35.3,0 64,28.7 64,64 0,35.3 -28.7,64 -64,64 -35.3,0 -64,-28.7 -64,-64 0,-35.3 28.7,-64 64,-64 z m 112,236.8 c 0,10.6 -10,19.2 -22.4,19.2 H 118.4 C 106,384 96,375.4 96,364.8 V 345.6 C 96,313.8 126.1,288 163.2,288 h 5 c 12.3,5.1 25.7,8 39.8,8 14.1,0 27.6,-2.9 39.8,-8 h 5 c 37.1,0 67.2,25.8 67.2,57.6 z"
     id="path2"
     style="fill:#322b1d;fill-opacity:1;stroke:#000000;stroke-opacity:0.33333334;stroke-width:6;stroke-miterlimit:4;stroke-dasharray:none"
     inkscape:connector-curvature="0" />
</svg>
