<?xml version="1.0" encoding="UTF-8" standalone="no"?>
<svg
   xmlns:dc="http://purl.org/dc/elements/1.1/"
   xmlns:cc="http://creativecommons.org/ns#"
   xmlns:rdf="http://www.w3.org/1999/02/22-rdf-syntax-ns#"
   xmlns:svg="http://www.w3.org/2000/svg"
   xmlns="http://www.w3.org/2000/svg"
   xmlns:sodipodi="http://sodipodi.sourceforge.net/DTD/sodipodi-0.dtd"
   xmlns:inkscape="http://www.inkscape.org/namespaces/inkscape"
   class="svg-inline--fa fa-address-book fa-w-14 fa-3x"
   role="img"
   aria-hidden="true"
   viewBox="0 0 448 512"
   focusable="false"
   data-prefix="far"
   data-icon="address-book"
   version="1.1"
   id="svg4580"
   sodipodi:docname="addressBookHollow.svg"
   inkscape:version="0.92.4 (5da689c313, 2019-01-14)">
  <metadata
     id="metadata4586">
    <rdf:RDF>
      <cc:Work
         rdf:about="">
        <dc:format>image/svg+xml</dc:format>
        <dc:type
           rdf:resource="http://purl.org/dc/dcmitype/StillImage" />
        <dc:title></dc:title>
      </cc:Work>
    </rdf:RDF>
  </metadata>
  <defs
     id="defs4584" />
  <sodipodi:namedview
     pagecolor="#ffffff"
     bordercolor="#666666"
     borderopacity="1"
     objecttolerance="10"
     gridtolerance="10"
     guidetolerance="10"
     inkscape:pageopacity="0"
     inkscape:pageshadow="2"
     inkscape:window-width="1843"
     inkscape:window-height="824"
     id="namedview4582"
     showgrid="false"
     inkscape:zoom="0.80078125"
     inkscape:cx="-170.8648"
     inkscape:cy="208.05399"
     inkscape:window-x="0"
     inkscape:window-y="0"
     inkscape:window-maximized="0"
     inkscape:current-layer="svg4580" />
  <path
     class=""
     fill="currentColor"
     d="M 436 160 c 6.6 0 12 -5.4 12 -12 v -40 c 0 -6.6 -5.4 -12 -12 -12 h -20 V 48 c 0 -26.5 -21.5 -48 -48 -48 H 48 C 21.5 0 0 21.5 0 48 v 416 c 0 26.5 21.5 48 48 48 h 320 c 26.5 0 48 -21.5 48 -48 v -48 h 20 c 6.6 0 12 -5.4 12 -12 v -40 c 0 -6.6 -5.4 -12 -12 -12 h -20 v -64 h 20 c 6.6 0 12 -5.4 12 -12 v -40 c 0 -6.6 -5.4 -12 -12 -12 h -20 v -64 h 20 Z m -68 304 H 48 V 48 h 320 v 416 Z M 208 256 c 35.3 0 64 -28.7 64 -64 s -28.7 -64 -64 -64 s -64 28.7 -64 64 s 28.7 64 64 64 Z m -89.6 128 h 179.2 c 12.4 0 22.4 -8.6 22.4 -19.2 v -19.2 c 0 -31.8 -30.1 -57.6 -67.2 -57.6 c -10.8 0 -18.7 8 -44.8 8 c -26.9 0 -33.4 -8 -44.8 -8 c -37.1 0 -67.2 25.8 -67.2 57.6 v 19.2 c 0 10.6 10 19.2 22.4 19.2 Z"
     style="fill:#322b1d;fill-opacity:1;stroke-width:6;stroke-miterlimit:4;stroke-dasharray:none;stroke:#000000;stroke-opacity:0.33152175;opacity:1;stroke-dashoffset:0"
     id="path4578" />
</svg>
