<?xml version="1.0" encoding="UTF-8" standalone="no"?>
<svg
   xmlns:dc="http://purl.org/dc/elements/1.1/"
   xmlns:cc="http://creativecommons.org/ns#"
   xmlns:rdf="http://www.w3.org/1999/02/22-rdf-syntax-ns#"
   xmlns:svg="http://www.w3.org/2000/svg"
   xmlns="http://www.w3.org/2000/svg"
   xmlns:sodipodi="http://sodipodi.sourceforge.net/DTD/sodipodi-0.dtd"
   xmlns:inkscape="http://www.inkscape.org/namespaces/inkscape"
   class="svg-inline--fa fa-debug fa-w-16 fa-3x"
   role="img"
   aria-hidden="true"
   viewBox="0 0 512 512"
   focusable="false"
   data-prefix="far"
   data-icon="debug"
   version="1.1"
   id="svg4"
   sodipodi:docname="debug.svg"
   inkscape:version="0.92.4 (5da689c313, 2019-01-14)">
  <metadata
     id="metadata10">
    <rdf:RDF>
      <cc:Work
         rdf:about="">
        <dc:format>image/svg+xml</dc:format>
        <dc:type
           rdf:resource="http://purl.org/dc/dcmitype/StillImage" />
        <dc:title></dc:title>
      </cc:Work>
    </rdf:RDF>
  </metadata>
  <defs
     id="defs8" />
  <sodipodi:namedview
     pagecolor="#ffffff"
     bordercolor="#666666"
     borderopacity="1"
     objecttolerance="10"
     gridtolerance="10"
     guidetolerance="10"
     inkscape:pageopacity="0"
     inkscape:pageshadow="2"
     inkscape:window-width="1280"
     inkscape:window-height="770"
     id="namedview6"
     showgrid="false"
     inkscape:zoom="0.4609375"
     inkscape:cx="256"
     inkscape:cy="256"
     inkscape:window-x="0"
     inkscape:window-y="0"
     inkscape:window-maximized="0"
     inkscape:current-layer="svg4" />
  <path
     class=""
     fill="currentColor"
     d="M 117.75 271 a 16 16 0 1 0 4.5 31.68 l 42.75 -6.09 a 90.21 90.21 0 0 0 10.81 39 l -35.51 23.69 a 16 16 0 1 0 17.7 26.61 l 37.64 -25.1 a 87.82 87.82 0 0 0 83.24 19.94 L 162.77 264.58 Z M 256 8 C 119 8 8 119 8 256 s 111 248 248 248 s 248 -111 248 -248 S 393 8 256 8 Z m 0 448 c -110.28 0 -200 -89.72 -200 -200 a 198.86 198.86 0 0 1 42.81 -123.25 l 280.44 280.44 A 198.86 198.86 0 0 1 256 456 Z m 157.19 -76.75 L 345 311.08 a 89.64 89.64 0 0 0 2 -14.49 l 42.73 6.11 a 16 16 0 1 0 4.5 -31.68 l -46.82 -6.69 v -24.65 l 46.82 -6.7 a 16 16 0 1 0 -4.5 -31.68 l -43.52 6.22 a 90.15 90.15 0 0 0 -10 -31.1 l 35.51 -23.69 A 16 16 0 1 0 354 126.11 l -37.64 25.1 a 90.27 90.27 0 0 0 -126.08 5.1 l -57.5 -57.5 A 198.86 198.86 0 0 1 256 56 c 110.28 0 200 89.72 200 200 a 198.86 198.86 0 0 1 -42.81 123.25 Z"
     id="path2"
     style="fill:#322b1d;fill-opacity:1;stroke:#585858;stroke-opacity:0.34509805;stroke-width:6;stroke-miterlimit:4;stroke-dasharray:none" />
</svg>
