<?xml version="1.0" encoding="UTF-8" standalone="no"?>
<svg
   xmlns:dc="http://purl.org/dc/elements/1.1/"
   xmlns:cc="http://creativecommons.org/ns#"
   xmlns:rdf="http://www.w3.org/1999/02/22-rdf-syntax-ns#"
   xmlns:svg="http://www.w3.org/2000/svg"
   xmlns="http://www.w3.org/2000/svg"
   xmlns:sodipodi="http://sodipodi.sourceforge.net/DTD/sodipodi-0.dtd"
   xmlns:inkscape="http://www.inkscape.org/namespaces/inkscape"
   class="svg-inline--fa fa-lock-alt fa-w-14 fa-3x"
   role="img"
   aria-hidden="true"
   viewBox="0 0 448 512"
   focusable="false"
   data-prefix="far"
   data-icon="lock-alt"
   version="1.1"
   id="svg79320"
   sodipodi:docname="encrypt.svg"
   inkscape:version="0.92.4 (5da689c313, 2019-01-14)">
  <metadata
     id="metadata79326">
    <rdf:RDF>
      <cc:Work
         rdf:about="">
        <dc:format>image/svg+xml</dc:format>
        <dc:type
           rdf:resource="http://purl.org/dc/dcmitype/StillImage" />
        <dc:title></dc:title>
      </cc:Work>
    </rdf:RDF>
  </metadata>
  <defs
     id="defs79324" />
  <sodipodi:namedview
     pagecolor="#ffffff"
     bordercolor="#666666"
     borderopacity="1"
     objecttolerance="10"
     gridtolerance="10"
     guidetolerance="10"
     inkscape:pageopacity="0"
     inkscape:pageshadow="2"
     inkscape:window-width="1336"
     inkscape:window-height="838"
     id="namedview79322"
     showgrid="false"
     inkscape:zoom="0.4609375"
     inkscape:cx="224"
     inkscape:cy="256"
     inkscape:window-x="0"
     inkscape:window-y="0"
     inkscape:window-maximized="0"
     inkscape:current-layer="svg79320" />
  <path
     class=""
     fill="currentColor"
     d="M 224 412 c -15.5 0 -28 -12.5 -28 -28 v -64 c 0 -15.5 12.5 -28 28 -28 s 28 12.5 28 28 v 64 c 0 15.5 -12.5 28 -28 28 Z m 224 -172 v 224 c 0 26.5 -21.5 48 -48 48 H 48 c -26.5 0 -48 -21.5 -48 -48 V 240 c 0 -26.5 21.5 -48 48 -48 h 32 v -48 C 80 64.5 144.8 -0.2 224.4 0 C 304 0.2 368 65.8 368 145.4 V 192 h 32 c 26.5 0 48 21.5 48 48 Z m -320 -48 h 192 v -48 c 0 -52.9 -43.1 -96 -96 -96 s -96 43.1 -96 96 v 48 Z m 272 48 H 48 v 224 h 352 V 240 Z"
     id="path79318"
     style="fill:#322b1d;fill-opacity:1;stroke:#d09430;stroke-opacity:0.34509805;stroke-width:6;stroke-miterlimit:4;stroke-dasharray:none" />
  <path
     style="opacity:1;fill:#d09430;fill-opacity:1;fill-rule:evenodd;stroke:#d09430;stroke-width:13.0169487;stroke-miterlimit:4;stroke-dasharray:none;stroke-dashoffset:0;stroke-opacity:0.57065219"
     d="M 51.308475,351.45763 V 242.98305 H 223.78305 396.25763 V 351.45763 459.9322 H 223.78305 51.308475 Z m 190.141915,58.30804 c 12.2068,-7.4086 13.79124,-14.14955 13.78218,-58.63592 -0.009,-44.44397 -1.33281,-49.36678 -15.70088,-58.38899 -8.75919,-5.50021 -25.16612,-4.71452 -33.80855,1.619 -11.84522,8.68065 -13.39143,15.40115 -13.38624,58.18261 0.004,35.98053 0.36684,39.64484 4.61023,46.60571 5.51292,9.0434 9.48873,12.3334 18.15795,15.02582 8.1331,2.52592 17.50364,0.95799 26.34531,-4.40823 z"
     id="path79871"
     inkscape:connector-curvature="0" />
</svg>
