<?xml version="1.0" encoding="UTF-8" standalone="no"?>
<svg
   xmlns:dc="http://purl.org/dc/elements/1.1/"
   xmlns:cc="http://creativecommons.org/ns#"
   xmlns:rdf="http://www.w3.org/1999/02/22-rdf-syntax-ns#"
   xmlns:svg="http://www.w3.org/2000/svg"
   xmlns="http://www.w3.org/2000/svg"
   xmlns:sodipodi="http://sodipodi.sourceforge.net/DTD/sodipodi-0.dtd"
   xmlns:inkscape="http://www.inkscape.org/namespaces/inkscape"
   class="svg-inline--fa fa-file-csv fa-w-12 fa-3x"
   role="img"
   aria-hidden="true"
   viewBox="0 0 384 512"
   focusable="false"
   data-prefix="far"
   data-icon="file-csv"
   version="1.1"
   id="svg10185"
   sodipodi:docname="fileCSV.svg"
   inkscape:version="0.92.4 (5da689c313, 2019-01-14)">
  <metadata
     id="metadata10191">
    <rdf:RDF>
      <cc:Work
         rdf:about="">
        <dc:format>image/svg+xml</dc:format>
        <dc:type
           rdf:resource="http://purl.org/dc/dcmitype/StillImage" />
        <dc:title></dc:title>
      </cc:Work>
    </rdf:RDF>
  </metadata>
  <defs
     id="defs10189" />
  <sodipodi:namedview
     pagecolor="#ffffff"
     bordercolor="#666666"
     borderopacity="1"
     objecttolerance="10"
     gridtolerance="10"
     guidetolerance="10"
     inkscape:pageopacity="0"
     inkscape:pageshadow="2"
     inkscape:window-width="1843"
     inkscape:window-height="824"
     id="namedview10187"
     showgrid="false"
     inkscape:zoom="1.1324757"
     inkscape:cx="102.12576"
     inkscape:cy="265.56934"
     inkscape:window-x="0"
     inkscape:window-y="0"
     inkscape:window-maximized="0"
     inkscape:current-layer="svg10185" />
  <path
     class=""
     fill="currentColor"
     d="M 369.83 97.98 L 285.94 14.1 c -9 -9 -21.2 -14.1 -33.89 -14.1 H 47.99 C 21.5 0.1 0 21.6 0 48.09 v 415.92 C 0 490.5 21.5 512 47.99 512 h 287.94 c 26.5 0 48.07 -21.5 48.07 -47.99 V 131.97 c 0 -12.69 -5.17 -24.99 -14.17 -33.99 Z M 255.95 51.99 l 76.09 76.08 h -76.09 V 51.99 Z M 336 464.01 H 47.99 V 48.09 h 159.97 v 103.98 c 0 13.3 10.7 23.99 24 23.99 H 336 v 287.95 Z M 224 264 v 20.8 c 0 35.48 12.88 68.89 36.28 94.09 c 3.02 3.25 7.27 5.11 11.72 5.11 s 8.7 -1.86 11.72 -5.11 c 23.41 -25.2 36.28 -58.61 36.28 -94.09 V 264 c 0 -4.42 -3.58 -8 -8 -8 h -16 c -4.42 0 -8 3.58 -8 8 v 20.8 c 0 20.27 -5.7 40.17 -16 56.88 c -10.3 -16.7 -16 -36.61 -16 -56.88 V 264 c 0 -4.42 -3.58 -8 -8 -8 h -16 c -4.42 0 -8 3.58 -8 8 Z m -104 -8 h -8 c -26.51 0 -48 21.49 -48 48 v 32 c 0 26.51 21.49 48 48 48 h 8 c 4.42 0 8 -3.58 8 -8 v -16 c 0 -4.42 -3.58 -8 -8 -8 h -8 c -8.84 0 -16 -7.16 -16 -16 v -32 c 0 -8.84 7.16 -16 16 -16 h 8 c 4.42 0 8 -3.58 8 -8 v -16 c 0 -4.42 -3.58 -8 -8 -8 Z m 59.45 42.47 c -1.38 -1.19 -2.12 -2.55 -2.12 -3.84 c 0 -3.12 4.45 -6.62 10.41 -6.62 H 200 c 4.42 0 8 -3.58 8 -8 v -16 c 0 -4.42 -3.58 -8 -8 -8 h -12.27 c -23.39 0 -42.41 17.33 -42.41 38.62 c 0 10.66 4.86 20.92 13.33 28.14 l 21.89 18.77 c 1.38 1.19 2.12 2.55 2.12 3.84 c 0 3.12 -4.45 6.62 -10.41 6.62 H 160 c -4.42 0 -8 3.58 -8 8 v 16 c 0 4.42 3.58 8 8 8 h 12.27 c 23.39 0 42.41 -17.33 42.41 -38.62 c 0 -10.66 -4.86 -20.92 -13.33 -28.14 l -21.9 -18.77 Z"
     id="path10183"
     style="fill:#322b1d;fill-opacity:1;stroke:#585858;stroke-opacity:0.33152175;stroke-width:6;stroke-miterlimit:4;stroke-dasharray:none" />
  <path
     style="opacity:1;fill:#585858;fill-opacity:1;stroke:#585858;stroke-width:5.2981267;stroke-miterlimit:4;stroke-dasharray:none;stroke-dashoffset:0;stroke-opacity:0.33152179"
     d="M 51.61695,255.87898 V 51.459586 h 76.34871 76.34872 l 0.25337,53.222074 0.25337,53.22206 2.90968,5.90892 c 3.10165,6.29876 6.81412,9.97006 13.3991,13.25048 l 4.00071,1.99302 53.64353,0.25314 53.64354,0.25313 V 319.9304 460.29838 H 192.01731 51.61695 Z m 76.0437,127.70045 3.4282,-3.42821 v -11.66767 c 0,-16.7235 -1.86072,-19.08061 -15.55057,-19.69902 -8.35532,-0.37745 -12.0763,-2.11077 -14.62135,-6.81099 -1.525188,-2.81672 -1.651404,-4.85107 -1.424401,-22.95854 0.228958,-18.26343 0.391701,-20.0603 2.015121,-22.24932 2.68586,-3.62162 6.36065,-5.02138 14.12833,-5.38158 13.38004,-0.62047 15.45918,-3.22563 15.43986,-19.34613 -0.0145,-12.11804 -0.62856,-14.15031 -5.20781,-17.23626 -2.57198,-1.73326 -4.1055,-2.01116 -11.0249,-1.99797 -16.600987,0.0317 -28.517023,4.72242 -38.943098,15.32996 -6.594412,6.70919 -10.761932,13.61464 -13.387745,22.18311 -1.40834,4.59565 -1.623615,8.51782 -1.623615,29.58121 0,22.63175 0.133183,24.70341 1.958468,30.46423 5.446948,17.19119 19.493691,30.77357 36.452952,35.24785 2.785878,0.73498 9.136508,1.30608 14.894488,1.33941 l 10.03787,0.0581 z m 56.67156,2.1133 c 15.62203,-4.06903 28.14836,-15.79886 31.97726,-29.94398 2.32622,-8.59372 1.57201,-18.75988 -1.95013,-26.28653 -3.43443,-7.33919 -6.62503,-10.85144 -21.73254,-23.92336 -11.47329,-9.92739 -12.1098,-10.64465 -10.76489,-12.13075 1.17361,-1.29683 3.20486,-1.63584 11.35096,-1.89443 11.00273,-0.34927 13.42836,-1.27848 16.50372,-6.32222 1.43636,-2.3557 1.72113,-4.46755 1.72389,-12.78419 0.005,-17.30709 -2.22724,-19.61035 -19.01689,-19.61556 -6.63345,-0.002 -12.61063,0.50197 -15.89438,1.34032 -22.44818,5.73104 -36.83971,25.12631 -33.92354,45.71824 1.77232,12.51482 6.00722,18.54285 23.74862,33.80424 13.15024,11.31201 13.24331,11.41796 11.53294,13.12834 -1.45311,1.45312 -3.39161,1.80074 -12.32576,2.21033 -10.52962,0.48275 -10.62101,0.50559 -13.48607,3.37037 l -2.88461,2.88432 -0.29449,11.10388 c -0.32704,12.33168 0.3122,14.98417 4.45036,18.4662 2.48277,2.08911 3.13815,2.18967 14.2698,2.18967 7.48435,0 13.47746,-0.47142 16.71575,-1.31489 z m 95.57623,-0.3422 c 9.9309,-4.51109 28.43246,-32.4639 35.72411,-53.97324 5.53064,-16.31462 8.38831,-38.03462 7.81278,-59.38189 -0.47166,-17.49488 -2.24456,-19.20925 -19.85929,-19.20369 -8.81918,0.003 -10.90689,0.27408 -13.28975,1.727 -4.90368,2.98994 -5.2999,4.76225 -5.83144,26.08486 -0.60445,24.2469 -2.31974,32.55381 -10.39309,50.33221 l -2.00493,4.41511 -3.30248,-7.02526 c -6.80058,-14.46664 -9.63538,-30.05008 -9.64073,-52.99702 -0.003,-12.47788 -0.20715,-14.48583 -1.727,-16.97845 -2.83016,-4.64163 -5.69193,-5.56175 -17.29811,-5.56175 -15.88987,0 -18.793,2.27136 -19.58457,15.32258 -0.57639,9.50364 1.09112,35.28732 2.89236,44.72286 4.42477,23.17837 16.90615,48.71151 31.92385,65.30661 5.81394,6.42462 10.33389,8.82838 16.60058,8.82838 2.42831,0 6.01828,-0.72824 7.97771,-1.61831 z"
     id="path10193"
     inkscape:connector-curvature="0" />
  <path
     style="opacity:1;fill:#585858;fill-opacity:1;stroke:#585858;stroke-width:5.2981267;stroke-miterlimit:4;stroke-dasharray:none;stroke-dashoffset:0;stroke-opacity:0.33333334"
     d="M 259.12692,92.303851 V 59.85736 l 32.23027,32.221199 c 17.72665,17.721661 32.23027,32.322581 32.23027,32.446491 0,0.12391 -14.50362,0.22529 -32.23027,0.22529 h -32.23027 z"
     id="path10195"
     inkscape:connector-curvature="0" />
</svg>
