<?xml version="1.0" encoding="UTF-8" standalone="no"?>
<svg
   xmlns:dc="http://purl.org/dc/elements/1.1/"
   xmlns:cc="http://creativecommons.org/ns#"
   xmlns:rdf="http://www.w3.org/1999/02/22-rdf-syntax-ns#"
   xmlns:svg="http://www.w3.org/2000/svg"
   xmlns="http://www.w3.org/2000/svg"
   xmlns:sodipodi="http://sodipodi.sourceforge.net/DTD/sodipodi-0.dtd"
   xmlns:inkscape="http://www.inkscape.org/namespaces/inkscape"
   class="svg-inline--fa fa-bezier-curve fa-w-20 fa-3x"
   role="img"
   aria-hidden="true"
   viewBox="0 0 640 512"
   focusable="false"
   data-prefix="fas"
   data-icon="bezier-curve"
   version="1.1"
   id="svg5464"
   sodipodi:docname="masternodes.svg"
   inkscape:version="0.92.4 (5da689c313, 2019-01-14)">
  <metadata
     id="metadata5470">
    <rdf:RDF>
      <cc:Work
         rdf:about="">
        <dc:format>image/svg+xml</dc:format>
        <dc:type
           rdf:resource="http://purl.org/dc/dcmitype/StillImage" />
        <dc:title></dc:title>
      </cc:Work>
    </rdf:RDF>
  </metadata>
  <defs
     id="defs5468" />
  <sodipodi:namedview
     pagecolor="#ffffff"
     bordercolor="#666666"
     borderopacity="1"
     objecttolerance="10"
     gridtolerance="10"
     guidetolerance="10"
     inkscape:pageopacity="0"
     inkscape:pageshadow="2"
     inkscape:window-width="1843"
     inkscape:window-height="824"
     id="namedview5466"
     showgrid="false"
     inkscape:zoom="0.56623785"
     inkscape:cx="-31.147204"
     inkscape:cy="249.231"
     inkscape:window-x="0"
     inkscape:window-y="0"
     inkscape:window-maximized="0"
     inkscape:current-layer="svg5464" />
  <path
     class=""
     fill="currentColor"
     d="M 368 32 h -96 c -17.67 0 -32 14.33 -32 32 v 96 c 0 17.67 14.33 32 32 32 h 96 c 17.67 0 32 -14.33 32 -32 V 64 c 0 -17.67 -14.33 -32 -32 -32 Z M 208 88 h -84.75 C 113.75 64.56 90.84 48 64 48 C 28.66 48 0 76.65 0 112 s 28.66 64 64 64 c 26.84 0 49.75 -16.56 59.25 -40 h 79.73 c -55.37 32.52 -95.86 87.32 -109.54 152 h 49.4 c 11.3 -41.61 36.77 -77.21 71.04 -101.56 c -3.7 -8.08 -5.88 -16.99 -5.88 -26.44 V 88 Z m -48 232 H 64 c -17.67 0 -32 14.33 -32 32 v 96 c 0 17.67 14.33 32 32 32 h 96 c 17.67 0 32 -14.33 32 -32 v -96 c 0 -17.67 -14.33 -32 -32 -32 Z M 576 48 c -26.84 0 -49.75 16.56 -59.25 40 H 432 v 72 c 0 9.45 -2.19 18.36 -5.88 26.44 c 34.27 24.35 59.74 59.95 71.04 101.56 h 49.4 c -13.68 -64.68 -54.17 -119.48 -109.54 -152 h 79.73 c 9.5 23.44 32.41 40 59.25 40 c 35.34 0 64 -28.65 64 -64 s -28.66 -64 -64 -64 Z m 0 272 h -96 c -17.67 0 -32 14.33 -32 32 v 96 c 0 17.67 14.33 32 32 32 h 96 c 17.67 0 32 -14.33 32 -32 v -96 c 0 -17.67 -14.33 -32 -32 -32 Z"
     id="path5462"
     style="stroke:#000000;stroke-opacity:0.33152175;fill:#322b1d;fill-opacity:1;stroke-width:6;stroke-miterlimit:4;stroke-dasharray:none" />
</svg>
