<?xml version="1.0" encoding="UTF-8" standalone="no"?>
<svg
   xmlns:dc="http://purl.org/dc/elements/1.1/"
   xmlns:cc="http://creativecommons.org/ns#"
   xmlns:rdf="http://www.w3.org/1999/02/22-rdf-syntax-ns#"
   xmlns:svg="http://www.w3.org/2000/svg"
   xmlns="http://www.w3.org/2000/svg"
   xmlns:sodipodi="http://sodipodi.sourceforge.net/DTD/sodipodi-0.dtd"
   xmlns:inkscape="http://www.inkscape.org/namespaces/inkscape"
   class="svg-inline--fa fa-envelope fa-w-16 fa-3x"
   role="img"
   aria-hidden="true"
   viewBox="0 0 512 512"
   focusable="false"
   data-prefix="far"
   data-icon="envelope"
   version="1.1"
   id="svg72858"
   sodipodi:docname="message.svg"
   inkscape:version="0.92.4 (5da689c313, 2019-01-14)">
  <metadata
     id="metadata72864">
    <rdf:RDF>
      <cc:Work
         rdf:about="">
        <dc:format>image/svg+xml</dc:format>
        <dc:type
           rdf:resource="http://purl.org/dc/dcmitype/StillImage" />
        <dc:title></dc:title>
      </cc:Work>
    </rdf:RDF>
  </metadata>
  <defs
     id="defs72862" />
  <sodipodi:namedview
     pagecolor="#ffffff"
     bordercolor="#666666"
     borderopacity="1"
     objecttolerance="10"
     gridtolerance="10"
     guidetolerance="10"
     inkscape:pageopacity="0"
     inkscape:pageshadow="2"
     inkscape:window-width="882"
     inkscape:window-height="734"
     id="namedview72860"
     showgrid="false"
     inkscape:zoom="0.4609375"
     inkscape:cx="256"
     inkscape:cy="256"
     inkscape:window-x="382"
     inkscape:window-y="175"
     inkscape:window-maximized="0"
     inkscape:current-layer="svg72858" />
  <path
     class=""
     fill="currentColor"
     d="M 464 64 H 48 C 21.49 64 0 85.49 0 112 v 288 c 0 26.51 21.49 48 48 48 h 416 c 26.51 0 48 -21.49 48 -48 V 112 c 0 -26.51 -21.49 -48 -48 -48 Z m 0 48 v 40.805 c -22.422 18.259 -58.168 46.651 -134.587 106.49 c -16.841 13.247 -50.201 45.072 -73.413 44.701 c -23.208 0.375 -56.579 -31.459 -73.413 -44.701 C 106.18 199.465 70.425 171.067 48 152.805 V 112 h 416 Z M 48 400 V 214.398 c 22.914 18.251 55.409 43.862 104.938 82.646 c 21.857 17.205 60.134 55.186 103.062 54.955 c 42.717 0.231 80.509 -37.199 103.053 -54.947 c 49.528 -38.783 82.032 -64.401 104.947 -82.653 V 400 H 48 Z"
     id="path72856"
     style="fill:#322b1d;fill-opacity:1;stroke:#585858;stroke-opacity:0.34509805;stroke-width:6;stroke-miterlimit:4;stroke-dasharray:none" />
  <path
     style="opacity:1;fill:#524022;fill-opacity:1;fill-rule:evenodd;stroke:#524022;stroke-width:13.0169487;stroke-miterlimit:4;stroke-dasharray:none;stroke-dashoffset:0;stroke-opacity:0.58039218"
     d="m 236.57512,294.46896 c -5.90208,-2.94512 -33.67343,-23.50174 -61.7141,-45.68138 C 146.82034,226.60794 107.57164,195.5803 87.641687,179.83726 L 51.405408,151.21356 51.302704,133.31525 51.2,115.41695 h 205.10469 205.10468 l -0.63011,17.8983 -0.63011,17.89831 -38.20377,30.37288 C 274.43348,298.86183 273.27811,299.6852 256.10054,299.77682 c -5.08927,0.0271 -13.3154,-2.20907 -19.52542,-5.30786 z"
     id="path73409"
     inkscape:connector-curvature="0" />
  <path
     style="opacity:1;fill:#524022;fill-opacity:1;fill-rule:evenodd;stroke:#524022;stroke-width:13.0169487;stroke-miterlimit:4;stroke-dasharray:none;stroke-dashoffset:0;stroke-opacity:0.58039218"
     d="m 51.2,308.24035 v -87.041 l 9.220339,7.46463 c 18.908086,15.30766 102.427691,81.41134 119.507151,94.58693 22.26132,17.17302 43.85104,27.74219 63.57999,31.12532 13.13807,2.25293 17.44292,2.11272 29.95821,-0.97573 20.36794,-5.0263 38.18311,-14.32708 60.10346,-31.37829 25.13514,-19.55189 119.08636,-93.6941 123.86814,-97.75133 3.60626,-3.05983 3.79661,1.14619 3.79661,83.89457 v 87.11591 H 256.21695 51.2 Z"
     id="path73411"
     inkscape:connector-curvature="0" />
</svg>
