<?xml version="1.0" encoding="UTF-8" standalone="no"?>
<svg
   xmlns:dc="http://purl.org/dc/elements/1.1/"
   xmlns:cc="http://creativecommons.org/ns#"
   xmlns:rdf="http://www.w3.org/1999/02/22-rdf-syntax-ns#"
   xmlns:svg="http://www.w3.org/2000/svg"
   xmlns="http://www.w3.org/2000/svg"
   xmlns:sodipodi="http://sodipodi.sourceforge.net/DTD/sodipodi-0.dtd"
   xmlns:inkscape="http://www.inkscape.org/namespaces/inkscape"
   class="svg-inline--fa fa-gavel fa-w-16 fa-3x"
   role="img"
   aria-hidden="true"
   viewBox="0 0 512 512"
   focusable="false"
   data-prefix="fal"
   data-icon="gavel"
   version="1.1"
   id="svg10619"
   sodipodi:docname="mnReward.svg"
   inkscape:version="0.92.4 (5da689c313, 2019-01-14)">
  <metadata
     id="metadata10625">
    <rdf:RDF>
      <cc:Work
         rdf:about="">
        <dc:format>image/svg+xml</dc:format>
        <dc:type
           rdf:resource="http://purl.org/dc/dcmitype/StillImage" />
        <dc:title></dc:title>
      </cc:Work>
    </rdf:RDF>
  </metadata>
  <defs
     id="defs10623" />
  <sodipodi:namedview
     pagecolor="#ffffff"
     bordercolor="#666666"
     borderopacity="1"
     objecttolerance="10"
     gridtolerance="10"
     guidetolerance="10"
     inkscape:pageopacity="0"
     inkscape:pageshadow="2"
     inkscape:window-width="1745"
     inkscape:window-height="804"
     id="namedview10621"
     showgrid="false"
     inkscape:zoom="0.4609375"
     inkscape:cx="256"
     inkscape:cy="256"
     inkscape:window-x="0"
     inkscape:window-y="0"
     inkscape:window-maximized="0"
     inkscape:current-layer="svg10619" />
  <path
     class=""
     fill="currentColor"
     d="M 500.892 186.561 l -20.633 -20.643 c -12.912 -12.912 -32.416 -14.337 -46.732 -5.448 L 351.53 78.474 c 8.888 -14.315 7.465 -33.82 -5.448 -46.731 L 325.44 11.108 c -14.808 -14.808 -38.781 -14.813 -53.592 0 L 158.315 124.633 c -14.774 14.775 -14.774 38.815 0 53.591 l 20.643 20.644 c 12.659 12.657 32.118 14.473 46.725 5.439 l 29.692 29.692 l -58.803 58.803 l -8.082 -8.082 c -16.933 -16.934 -44.484 -16.932 -61.417 0 L 12.699 399.073 c -16.932 16.933 -16.932 44.484 0 61.417 l 38.81 38.811 c 16.931 16.932 44.482 16.933 61.417 0 L 227.28 384.927 c 16.932 -16.933 16.932 -44.484 0 -61.417 l -8.081 -8.081 l 58.803 -58.803 l 29.692 29.692 c -9.031 14.607 -7.218 34.067 5.44 46.725 l 20.643 20.643 c 14.776 14.776 38.815 14.776 53.591 0 l 113.525 -113.533 c 14.808 -14.809 14.811 -38.781 -0.001 -53.592 Z M 204.653 362.3 L 90.3 476.652 c -4.456 4.458 -11.707 4.457 -16.163 0 v 0.001 l -38.79 -38.79 c -4.456 -4.456 -4.456 -11.707 0 -16.163 L 149.7 307.348 c 4.456 -4.457 11.706 -4.458 16.162 -0.001 l 38.79 38.79 c 4.456 4.456 4.456 11.707 0.001 16.163 Z m 273.62 -144.776 L 364.74 331.058 a 5.896 5.896 0 0 1 -8.337 0 l -20.643 -20.643 a 5.902 5.902 0 0 1 -0.001 -8.336 l 16.478 -16.474 l -125.842 -125.841 l -16.474 16.475 a 5.902 5.902 0 0 1 -8.336 0.001 l -20.643 -20.643 a 5.903 5.903 0 0 1 0 -8.337 L 294.476 33.727 a 5.896 5.896 0 0 1 8.337 0 l 20.643 20.644 a 5.893 5.893 0 0 1 -0.001 8.336 l -16.472 16.475 L 432.82 205.019 l 16.477 -16.473 a 5.893 5.893 0 0 1 8.335 0 l 20.643 20.643 v 0.001 a 5.893 5.893 0 0 1 -0.002 8.334 Z"
     id="path10617"
     style="fill:#322b1d;fill-opacity:1;stroke:#585858;stroke-opacity:0.33333334;stroke-width:6;stroke-miterlimit:4;stroke-dasharray:none" />
  <path
     style="opacity:1;fill:#524022;fill-opacity:1;fill-rule:evenodd;stroke:none;stroke-width:13.0169487;stroke-miterlimit:4;stroke-dasharray:none;stroke-dashoffset:0;stroke-opacity:0.33333333"
     d="m 349.09811,317.64751 c -5.62294,-5.70878 -10.22353,-11.28539 -10.22353,-12.39246 0,-1.10707 4.12554,-6.21646 9.16787,-11.35423 l 9.16787,-9.34137 -64.98848,-65.01557 -64.98847,-65.01557 -10.3781,10.22204 -10.37809,10.22204 -11.89874,-11.89874 -11.89874,-11.89874 58.07429,-58.044407 58.07428,-58.04441 11.80973,11.958264 11.80971,11.958265 -10.19699,10.352662 -10.19699,10.352661 65.01557,64.988475 65.01557,64.98848 9.34138,-9.16788 c 5.13776,-5.04233 10.3174,-9.16787 11.5103,-9.16787 1.19291,0 6.99168,4.89637 12.88615,10.88082 l 10.7172,10.88082 -57.42748,57.45817 c -31.58512,31.60199 -57.95922,57.45816 -58.60913,57.45816 -0.64991,0 -5.78224,-4.67083 -11.40518,-10.37961 z"
     id="path11170"
     inkscape:connector-curvature="0" />
  <path
     style="opacity:1;fill:#524022;fill-opacity:1;fill-rule:evenodd;stroke:none;stroke-width:13.0169487;stroke-miterlimit:4;stroke-dasharray:none;stroke-dashoffset:0;stroke-opacity:0.33333333"
     d="M 56.162028,454.16152 C 44.603082,442.39646 35.145763,431.45431 35.145763,429.84563 c 0,-4.94184 117.572847,-121.34394 122.564387,-121.34394 5.14432,0 46.65595,40.58362 46.65595,45.61293 0,5.16245 -117.509832,121.43792 -122.72708,121.43792 -2.778715,0 -12.385362,-8.06594 -25.476992,-21.39102 z"
     id="path11172"
     inkscape:connector-curvature="0" />
</svg>
