<?xml version="1.0" encoding="UTF-8" standalone="no"?>
<svg
   xmlns:dc="http://purl.org/dc/elements/1.1/"
   xmlns:cc="http://creativecommons.org/ns#"
   xmlns:rdf="http://www.w3.org/1999/02/22-rdf-syntax-ns#"
   xmlns:svg="http://www.w3.org/2000/svg"
   xmlns="http://www.w3.org/2000/svg"
   xmlns:sodipodi="http://sodipodi.sourceforge.net/DTD/sodipodi-0.dtd"
   xmlns:inkscape="http://www.inkscape.org/namespaces/inkscape"
   class="svg-inline--fa fa-network-wired fa-w-20 fa-3x"
   role="img"
   aria-hidden="true"
   viewBox="0 0 640 512"
   focusable="false"
   data-prefix="fas"
   data-icon="network-wired"
   version="1.1"
   id="svg76546"
   sodipodi:docname="networkMonitor.svg"
   inkscape:version="0.92.4 (5da689c313, 2019-01-14)">
  <metadata
     id="metadata76552">
    <rdf:RDF>
      <cc:Work
         rdf:about="">
        <dc:format>image/svg+xml</dc:format>
        <dc:type
           rdf:resource="http://purl.org/dc/dcmitype/StillImage" />
        <dc:title></dc:title>
      </cc:Work>
    </rdf:RDF>
  </metadata>
  <defs
     id="defs76550" />
  <sodipodi:namedview
     pagecolor="#ffffff"
     bordercolor="#666666"
     borderopacity="1"
     objecttolerance="10"
     gridtolerance="10"
     guidetolerance="10"
     inkscape:pageopacity="0"
     inkscape:pageshadow="2"
     inkscape:window-width="1387"
     inkscape:window-height="738"
     id="namedview76548"
     showgrid="false"
     inkscape:zoom="0.4609375"
     inkscape:cx="320"
     inkscape:cy="256"
     inkscape:window-x="0"
     inkscape:window-y="0"
     inkscape:window-maximized="0"
     inkscape:current-layer="svg76546" />
  <path
     class=""
     fill="currentColor"
     d="M 640 264 v -16 c 0 -8.84 -7.16 -16 -16 -16 H 344 v -40 h 72 c 17.67 0 32 -14.33 32 -32 V 32 c 0 -17.67 -14.33 -32 -32 -32 H 224 c -17.67 0 -32 14.33 -32 32 v 128 c 0 17.67 14.33 32 32 32 h 72 v 40 H 16 c -8.84 0 -16 7.16 -16 16 v 16 c 0 8.84 7.16 16 16 16 h 104 v 40 H 64 c -17.67 0 -32 14.33 -32 32 v 128 c 0 17.67 14.33 32 32 32 h 160 c 17.67 0 32 -14.33 32 -32 V 352 c 0 -17.67 -14.33 -32 -32 -32 h -56 v -40 h 304 v 40 h -56 c -17.67 0 -32 14.33 -32 32 v 128 c 0 17.67 14.33 32 32 32 h 160 c 17.67 0 32 -14.33 32 -32 V 352 c 0 -17.67 -14.33 -32 -32 -32 h -56 v -40 h 104 c 8.84 0 16 -7.16 16 -16 Z M 256 128 V 64 h 128 v 64 H 256 Z m -64 320 H 96 v -64 h 96 v 64 Z m 352 0 h -96 v -64 h 96 v 64 Z"
     id="path76544"
     style="fill:#322b1d;fill-opacity:1;stroke:#585858;stroke-opacity:0.34509805;stroke-width:6;stroke-miterlimit:4;stroke-dasharray:none" />
  <path
     style="opacity:1;fill:#084e00;fill-opacity:0.83137256;fill-rule:evenodd;stroke:#005800;stroke-width:6;stroke-miterlimit:4;stroke-dasharray:none;stroke-dashoffset:0;stroke-opacity:1"
     d="m 260.55593,95.457627 v -28.20339 h 59.66102 59.66102 v 28.20339 28.203393 h -59.66102 -59.66102 z"
     id="path77097"
     inkscape:connector-curvature="0" />
  <path
     style="opacity:1;fill:#084e00;fill-opacity:0.83137255;fill-rule:evenodd;stroke:#005800;stroke-width:6;stroke-miterlimit:4;stroke-dasharray:none;stroke-dashoffset:0;stroke-opacity:1"
     d="m 100.01356,416.54237 v -28.20339 h 44.47458 44.47457 v 28.20339 28.20339 h -44.47457 -44.47458 z"
     id="path77099"
     inkscape:connector-curvature="0" />
  <path
     style="opacity:1;fill:#084e00;fill-opacity:0.83137255;fill-rule:evenodd;stroke:#005800;stroke-width:6;stroke-miterlimit:4;stroke-dasharray:none;stroke-dashoffset:0;stroke-opacity:1"
     d="m 451.47119,416.54237 v -28.20339 h 44.47457 44.47458 v 28.20339 28.20339 h -44.47458 -44.47457 z"
     id="path77101"
     inkscape:connector-curvature="0" />
</svg>
