<?xml version="1.0" encoding="UTF-8" standalone="no"?>
<svg
   xmlns:dc="http://purl.org/dc/elements/1.1/"
   xmlns:cc="http://creativecommons.org/ns#"
   xmlns:rdf="http://www.w3.org/1999/02/22-rdf-syntax-ns#"
   xmlns:svg="http://www.w3.org/2000/svg"
   xmlns="http://www.w3.org/2000/svg"
   xmlns:sodipodi="http://sodipodi.sourceforge.net/DTD/sodipodi-0.dtd"
   xmlns:inkscape="http://www.inkscape.org/namespaces/inkscape"
   class="svg-inline--fa fa-cog fa-w-16 fa-3x"
   role="img"
   aria-hidden="true"
   viewBox="0 0 512 512"
   focusable="false"
   data-prefix="fas"
   data-icon="cog"
   version="1.1"
   id="svg9244"
   sodipodi:docname="options.svg"
   inkscape:version="0.92.4 (5da689c313, 2019-01-14)">
  <metadata
     id="metadata9250">
    <rdf:RDF>
      <cc:Work
         rdf:about="">
        <dc:format>image/svg+xml</dc:format>
        <dc:type
           rdf:resource="http://purl.org/dc/dcmitype/StillImage" />
        <dc:title></dc:title>
      </cc:Work>
    </rdf:RDF>
  </metadata>
  <defs
     id="defs9248" />
  <sodipodi:namedview
     pagecolor="#ffffff"
     bordercolor="#666666"
     borderopacity="1"
     objecttolerance="10"
     gridtolerance="10"
     guidetolerance="10"
     inkscape:pageopacity="0"
     inkscape:pageshadow="2"
     inkscape:window-width="1813"
     inkscape:window-height="821"
     id="namedview9246"
     showgrid="false"
     inkscape:zoom="0.4609375"
     inkscape:cx="256"
     inkscape:cy="256"
     inkscape:window-x="0"
     inkscape:window-y="0"
     inkscape:window-maximized="0"
     inkscape:current-layer="svg9244" />
  <path
     class=""
     fill="currentColor"
     d="M 487.4 315.7 l -42.6 -24.6 c 4.3 -23.2 4.3 -47 0 -70.2 l 42.6 -24.6 c 4.9 -2.8 7.1 -8.6 5.5 -14 c -11.1 -35.6 -30 -67.8 -54.7 -94.6 c -3.8 -4.1 -10 -5.1 -14.8 -2.3 L 380.8 110 c -17.9 -15.4 -38.5 -27.3 -60.8 -35.1 V 25.8 c 0 -5.6 -3.9 -10.5 -9.4 -11.7 c -36.7 -8.2 -74.3 -7.8 -109.2 0 c -5.5 1.2 -9.4 6.1 -9.4 11.7 V 75 c -22.2 7.9 -42.8 19.8 -60.8 35.1 L 88.7 85.5 c -4.9 -2.8 -11 -1.9 -14.8 2.3 c -24.7 26.7 -43.6 58.9 -54.7 94.6 c -1.7 5.4 0.6 11.2 5.5 14 L 67.3 221 c -4.3 23.2 -4.3 47 0 70.2 l -42.6 24.6 c -4.9 2.8 -7.1 8.6 -5.5 14 c 11.1 35.6 30 67.8 54.7 94.6 c 3.8 4.1 10 5.1 14.8 2.3 l 42.6 -24.6 c 17.9 15.4 38.5 27.3 60.8 35.1 v 49.2 c 0 5.6 3.9 10.5 9.4 11.7 c 36.7 8.2 74.3 7.8 109.2 0 c 5.5 -1.2 9.4 -6.1 9.4 -11.7 v -49.2 c 22.2 -7.9 42.8 -19.8 60.8 -35.1 l 42.6 24.6 c 4.9 2.8 11 1.9 14.8 -2.3 c 24.7 -26.7 43.6 -58.9 54.7 -94.6 c 1.5 -5.5 -0.7 -11.3 -5.6 -14.1 Z M 256 336 c -44.1 0 -80 -35.9 -80 -80 s 35.9 -80 80 -80 s 80 35.9 80 80 s -35.9 80 -80 80 Z"
     id="path9242"
     style="fill:#322b1d;fill-opacity:1;stroke:#585858;stroke-opacity:0.33333334;stroke-width:6;stroke-miterlimit:4;stroke-dasharray:none" />
</svg>
