<?xml version="1.0" encoding="UTF-8" standalone="no"?>
<svg
   xmlns:dc="http://purl.org/dc/elements/1.1/"
   xmlns:cc="http://creativecommons.org/ns#"
   xmlns:rdf="http://www.w3.org/1999/02/22-rdf-syntax-ns#"
   xmlns:svg="http://www.w3.org/2000/svg"
   xmlns="http://www.w3.org/2000/svg"
   xmlns:sodipodi="http://sodipodi.sourceforge.net/DTD/sodipodi-0.dtd"
   xmlns:inkscape="http://www.inkscape.org/namespaces/inkscape"
   class="svg-inline--fa fa-angle-double-left fa-w-14 fa-3x"
   role="img"
   aria-hidden="true"
   viewBox="0 0 448 512"
   focusable="false"
   data-prefix="fas"
   data-icon="angle-double-left"
   version="1.1"
   id="svg68859"
   sodipodi:docname="output.svg"
   inkscape:version="0.92.4 (5da689c313, 2019-01-14)">
  <metadata
     id="metadata68865">
    <rdf:RDF>
      <cc:Work
         rdf:about="">
        <dc:format>image/svg+xml</dc:format>
        <dc:type
           rdf:resource="http://purl.org/dc/dcmitype/StillImage" />
        <dc:title></dc:title>
      </cc:Work>
    </rdf:RDF>
  </metadata>
  <defs
     id="defs68863" />
  <sodipodi:namedview
     pagecolor="#ffffff"
     bordercolor="#666666"
     borderopacity="1"
     objecttolerance="10"
     gridtolerance="10"
     guidetolerance="10"
     inkscape:pageopacity="0"
     inkscape:pageshadow="2"
     inkscape:window-width="1379"
     inkscape:window-height="779"
     id="namedview68861"
     showgrid="false"
     inkscape:zoom="0.4609375"
     inkscape:cx="224"
     inkscape:cy="256"
     inkscape:window-x="286"
     inkscape:window-y="60"
     inkscape:window-maximized="0"
     inkscape:current-layer="svg68859" />
  <path
     class=""
     d="M 224.31704,239 88.317038,103 c -9.4,-9.4 -24.6,-9.4 -33.9,0 l -22.6,22.6 c -9.4,9.4 -9.4,24.6 0,33.9 L 128.11704,256 31.717038,352.4 c -9.4,9.4 -9.4,24.6 0,33.9 l 22.6,22.7 c 9.4,9.4 24.6,9.4 33.9,0 L 224.21704,273 c 9.5,-9.4 9.5,-24.6 0.1,-34 z m 192,34 -136,136 c -9.4,9.4 -24.6,9.4 -33.9,0 l -22.6,-22.6 c -9.4,-9.4 -9.4,-24.6 0,-33.9 l 96.3,-96.5 -96.4,-96.4 c -9.4,-9.4 -9.4,-24.6 0,-33.9 l 22.6,-22.7 c 9.4,-9.4 24.6,-9.4 33.9,0 l 136,136 c 9.5,9.4 9.5,24.6 0.1,34 z"
     id="path68857"
     style="fill:#d09430;fill-opacity:1;stroke:#585858;stroke-width:6;stroke-miterlimit:4;stroke-dasharray:none;stroke-opacity:0.34509804"
     inkscape:connector-curvature="0" />
</svg>
