<?xml version="1.0" encoding="UTF-8" standalone="no"?>
<svg
   xmlns:dc="http://purl.org/dc/elements/1.1/"
   xmlns:cc="http://creativecommons.org/ns#"
   xmlns:rdf="http://www.w3.org/1999/02/22-rdf-syntax-ns#"
   xmlns:svg="http://www.w3.org/2000/svg"
   xmlns="http://www.w3.org/2000/svg"
   xmlns:sodipodi="http://sodipodi.sourceforge.net/DTD/sodipodi-0.dtd"
   xmlns:inkscape="http://www.inkscape.org/namespaces/inkscape"
   class="svg-inline--fa fa-user-friends fa-w-20 fa-3x"
   role="img"
   aria-hidden="true"
   viewBox="0 0 640 512"
   focusable="false"
   data-prefix="fas"
   data-icon="user-friends"
   version="1.1"
   id="svg77385"
   sodipodi:docname="peers.svg"
   inkscape:version="0.92.4 (5da689c313, 2019-01-14)">
  <metadata
     id="metadata77391">
    <rdf:RDF>
      <cc:Work
         rdf:about="">
        <dc:format>image/svg+xml</dc:format>
        <dc:type
           rdf:resource="http://purl.org/dc/dcmitype/StillImage" />
        <dc:title></dc:title>
      </cc:Work>
    </rdf:RDF>
  </metadata>
  <defs
     id="defs77389" />
  <sodipodi:namedview
     pagecolor="#ffffff"
     bordercolor="#666666"
     borderopacity="1"
     objecttolerance="10"
     gridtolerance="10"
     guidetolerance="10"
     inkscape:pageopacity="0"
     inkscape:pageshadow="2"
     inkscape:window-width="1206"
     inkscape:window-height="633"
     id="namedview77387"
     showgrid="false"
     inkscape:zoom="0.4609375"
     inkscape:cx="320"
     inkscape:cy="256"
     inkscape:window-x="0"
     inkscape:window-y="0"
     inkscape:window-maximized="0"
     inkscape:current-layer="svg77385" />
  <path
     class=""
     fill="currentColor"
     d="M 192 256 c 61.9 0 112 -50.1 112 -112 S 253.9 32 192 32 S 80 82.1 80 144 s 50.1 112 112 112 Z m 76.8 32 h -8.3 c -20.8 10 -43.9 16 -68.5 16 s -47.6 -6 -68.5 -16 h -8.3 C 51.6 288 0 339.6 0 403.2 V 432 c 0 26.5 21.5 48 48 48 h 288 c 26.5 0 48 -21.5 48 -48 v -28.8 c 0 -63.6 -51.6 -115.2 -115.2 -115.2 Z M 480 256 c 53 0 96 -43 96 -96 s -43 -96 -96 -96 s -96 43 -96 96 s 43 96 96 96 Z m 48 32 h -3.8 c -13.9 4.8 -28.6 8 -44.2 8 s -30.3 -3.2 -44.2 -8 H 432 c -20.4 0 -39.2 5.9 -55.7 15.4 c 24.4 26.3 39.7 61.2 39.7 99.8 v 38.4 c 0 2.2 -0.5 4.3 -0.6 6.4 H 592 c 26.5 0 48 -21.5 48 -48 c 0 -61.9 -50.1 -112 -112 -112 Z"
     id="path77383"
     style="fill:#322b1d;fill-opacity:1;stroke:#585858;stroke-opacity:0.34509805;stroke-width:6;stroke-miterlimit:4;stroke-dasharray:none" />
</svg>
