<?xml version="1.0" encoding="UTF-8" standalone="no"?>
<svg
   xmlns:dc="http://purl.org/dc/elements/1.1/"
   xmlns:cc="http://creativecommons.org/ns#"
   xmlns:rdf="http://www.w3.org/1999/02/22-rdf-syntax-ns#"
   xmlns:svg="http://www.w3.org/2000/svg"
   xmlns="http://www.w3.org/2000/svg"
   xmlns:sodipodi="http://sodipodi.sourceforge.net/DTD/sodipodi-0.dtd"
   xmlns:inkscape="http://www.inkscape.org/namespaces/inkscape"
   class="svg-inline--fa fa-pen-fancy fa-w-16 fa-3x"
   role="img"
   aria-hidden="true"
   viewBox="0 0 512 512"
   focusable="false"
   data-prefix="fal"
   data-icon="pen-fancy"
   version="1.1"
   id="svg78173"
   sodipodi:docname="signing.svg"
   inkscape:version="0.92.4 (5da689c313, 2019-01-14)">
  <metadata
     id="metadata78179">
    <rdf:RDF>
      <cc:Work
         rdf:about="">
        <dc:format>image/svg+xml</dc:format>
        <dc:type
           rdf:resource="http://purl.org/dc/dcmitype/StillImage" />
        <dc:title></dc:title>
      </cc:Work>
    </rdf:RDF>
  </metadata>
  <defs
     id="defs78177" />
  <sodipodi:namedview
     pagecolor="#ffffff"
     bordercolor="#666666"
     borderopacity="1"
     objecttolerance="10"
     gridtolerance="10"
     guidetolerance="10"
     inkscape:pageopacity="0"
     inkscape:pageshadow="2"
     inkscape:window-width="730"
     inkscape:window-height="782"
     id="namedview78175"
     showgrid="false"
     inkscape:zoom="0.4609375"
     inkscape:cx="256"
     inkscape:cy="256"
     inkscape:window-x="0"
     inkscape:window-y="0"
     inkscape:window-maximized="0"
     inkscape:current-layer="svg78173" />
  <path
     class=""
     fill="currentColor"
     d="M 424.86 0 c -23.46 0 -46.85 9.64 -63.71 28.72 L 169.93 240 L 84.1 268.62 a 34.005 34.005 0 0 0 -21.5 21.5 L 0 478 l 33.99 34 l 187.79 -62.62 a 34.005 34.005 0 0 0 21.5 -21.5 l 28.6 -85.88 l 211.19 -191.3 C 544.5 96.38 500.08 0 424.86 0 Z M 212.93 417.75 c -0.2 0.59 -145.42 49.34 -145.42 49.34 l 68.63 -68.66 c 2.56 0.66 5.03 1.57 7.8 1.57 c 17.67 0 31.99 -14.33 31.99 -32 s -14.32 -32 -31.99 -32 s -31.99 14.33 -31.99 32 c 0 2.77 0.91 5.24 1.57 7.8 l -68.64 68.67 S 93.6 299.18 94.2 298.98 l 88.54 -29.53 l 59.69 59.71 l -29.5 88.59 Z M 461.6 126.97 L 264.26 305.74 l -58.09 -58.11 L 385.11 49.92 A 53.057 53.057 0 0 1 424.86 32 c 29.1 0 55.87 25.55 54.91 56.61 c -0.45 14.78 -6.81 28.31 -18.17 38.36 Z"
     id="path78171"
     style="fill:#322b1d;fill-opacity:1;stroke:#585858;stroke-opacity:0.34509805;stroke-width:6;stroke-miterlimit:4;stroke-dasharray:none" />
  <path
     style="opacity:1;fill:#524022;fill-opacity:1;fill-rule:evenodd;stroke:#684c07;stroke-width:13.0169487;stroke-miterlimit:4;stroke-dasharray:none;stroke-dashoffset:0;stroke-opacity:0.84239131"
     d="M 237.36315,274.46255 210.8485,247.88408 301.00388,148.13187 C 372.87824,68.606657 393.38707,47.1699 402.14601,42.413559 c 33.07373,-17.959928 73.43085,6.812527 73.33769,45.016949 -0.0563,23.077132 2.82969,19.923992 -118.16845,129.108102 -45.34237,40.91523 -84.91495,76.66633 -87.93906,79.44688 l -5.49839,5.05552 z"
     id="path78724"
     inkscape:connector-curvature="0" />
  <path
     style="opacity:1;fill:#d09430;fill-opacity:1;fill-rule:evenodd;stroke:#d09430;stroke-width:19;stroke-miterlimit:4;stroke-dasharray:none;stroke-dashoffset:0;stroke-opacity:0.625"
     d="m 108.87592,430.50205 c 25.42999,-25.73459 27.60061,-27.41052 35.50122,-27.41052 15.85314,0 30.98046,-12.5227 34.82286,-28.82705 3.6995,-15.69803 -9.49095,-35.90846 -26.40908,-40.46404 -21.9434,-5.90874 -43.88245,11.08106 -43.88245,33.98298 0,7.67667 -1.89857,10.14858 -27.118639,35.30811 -14.915255,14.87944 -27.061834,26.09191 -26.992398,24.91659 0.06943,-1.17531 9.588079,-29.96066 21.152543,-63.96744 l 21.026295,-61.83051 42.305089,-14.42191 42.30508,-14.42191 28.47749,28.22574 28.47749,28.22574 -14.28633,42.97686 -14.28633,42.97686 -60.6245,19.88924 c -33.34348,10.93908 -62.18374,20.42082 -64.089469,21.07052 -1.905727,0.6497 8.723779,-11.15347 23.621129,-26.22926 z"
     id="path78726"
     inkscape:connector-curvature="0" />
</svg>
