<?xml version="1.0" encoding="UTF-8" standalone="no"?>
<svg
   xmlns:dc="http://purl.org/dc/elements/1.1/"
   xmlns:cc="http://creativecommons.org/ns#"
   xmlns:rdf="http://www.w3.org/1999/02/22-rdf-syntax-ns#"
   xmlns:svg="http://www.w3.org/2000/svg"
   xmlns="http://www.w3.org/2000/svg"
   xmlns:sodipodi="http://sodipodi.sourceforge.net/DTD/sodipodi-0.dtd"
   xmlns:inkscape="http://www.inkscape.org/namespaces/inkscape"
   class="svg-inline--fa fa-circle-notch fa-w-16 fa-3x"
   role="img"
   aria-hidden="true"
   viewBox="0 0 512 512"
   focusable="false"
   data-prefix="fas"
   data-icon="circle-notch"
   version="1.1"
   id="svg69892"
   sodipodi:docname="spinner-019.svg"
   inkscape:version="0.92.4 (5da689c313, 2019-01-14)">
  <metadata
     id="metadata69898">
    <rdf:RDF>
      <cc:Work
         rdf:about="">
        <dc:format>image/svg+xml</dc:format>
        <dc:type
           rdf:resource="http://purl.org/dc/dcmitype/StillImage" />
        <dc:title></dc:title>
      </cc:Work>
    </rdf:RDF>
  </metadata>
  <defs
     id="defs69896" />
  <sodipodi:namedview
     pagecolor="#ffffff"
     bordercolor="#666666"
     borderopacity="1"
     objecttolerance="10"
     gridtolerance="10"
     guidetolerance="10"
     inkscape:pageopacity="0"
     inkscape:pageshadow="2"
     inkscape:window-width="1002"
     inkscape:window-height="687"
     id="namedview69894"
     showgrid="false"
     inkscape:zoom="0.4609375"
     inkscape:cx="236.47458"
     inkscape:cy="256"
     inkscape:window-x="376"
     inkscape:window-y="62"
     inkscape:window-maximized="0"
     inkscape:current-layer="svg69892" />
  <path
     class=""
     d="m 186.66067,464.88495 2.89281,-16.40592 c 1.87609,-10.63986 -3.66977,-21.11707 -13.41198,-25.7867 C 103.5612,387.9074 59.971657,308.04082 74.641808,224.8423 92.299929,124.69816 187.63782,57.928023 287.79773,75.588921 387.94185,93.247062 454.71196,188.58493 437.05107,288.74485 422.383,371.93154 354.11437,432.08467 274.00582,439.94843 c -10.75369,1.05569 -19.54889,9.00618 -21.42517,19.64704 l -2.89091,16.39508 c -2.72782,15.47032 9.89359,29.31638 25.55503,28.09846 110.52181,-8.5906 205.49701,-91.07544 225.06235,-205.54299 C 523.39688,163.45112 433.40716,35.984049 298.38514,12.469482 163.69123,-10.988246 35.367101,79.01892 11.614128,213.72878 -8.4653495,327.60509 52.60313,437.0177 153.27961,482.65027 c 14.20852,6.44014 30.67214,-2.40234 33.38106,-17.76532 z"
     id="path69890"
     style="fill:#322b1d;fill-opacity:1;stroke:#d09430;stroke-width:6;stroke-miterlimit:4;stroke-dasharray:none;stroke-opacity:0.58039216"
     inkscape:connector-curvature="0" />
</svg>
