<?xml version="1.0" encoding="UTF-8" standalone="no"?>
<svg
   xmlns:dc="http://purl.org/dc/elements/1.1/"
   xmlns:cc="http://creativecommons.org/ns#"
   xmlns:rdf="http://www.w3.org/1999/02/22-rdf-syntax-ns#"
   xmlns:svg="http://www.w3.org/2000/svg"
   xmlns="http://www.w3.org/2000/svg"
   xmlns:sodipodi="http://sodipodi.sourceforge.net/DTD/sodipodi-0.dtd"
   xmlns:inkscape="http://www.inkscape.org/namespaces/inkscape"
   class="svg-inline--fa fa-circle-notch fa-w-16 fa-3x"
   role="img"
   aria-hidden="true"
   viewBox="0 0 512 512"
   focusable="false"
   data-prefix="fas"
   data-icon="circle-notch"
   version="1.1"
   id="svg69892"
   sodipodi:docname="spinner-008.svg"
   inkscape:version="0.92.4 (5da689c313, 2019-01-14)">
  <metadata
     id="metadata69898">
    <rdf:RDF>
      <cc:Work
         rdf:about="">
        <dc:format>image/svg+xml</dc:format>
        <dc:type
           rdf:resource="http://purl.org/dc/dcmitype/StillImage" />
        <dc:title></dc:title>
      </cc:Work>
    </rdf:RDF>
  </metadata>
  <defs
     id="defs69896" />
  <sodipodi:namedview
     pagecolor="#ffffff"
     bordercolor="#666666"
     borderopacity="1"
     objecttolerance="10"
     gridtolerance="10"
     guidetolerance="10"
     inkscape:pageopacity="0"
     inkscape:pageshadow="2"
     inkscape:window-width="1002"
     inkscape:window-height="687"
     id="namedview69894"
     showgrid="false"
     inkscape:zoom="0.4609375"
     inkscape:cx="236.47458"
     inkscape:cy="256"
     inkscape:window-x="376"
     inkscape:window-y="62"
     inkscape:window-maximized="0"
     inkscape:current-layer="svg69892" />
  <path
     class=""
     d="m 475.86142,249.97843 -16.40591,2.8928 c -10.63986,1.8761 -18.58842,10.67094 -19.64442,21.42269 -7.8632,80.10033 -68.00473,148.37707 -151.20328,163.04722 C 188.4637,454.99925 93.112803,388.24766 75.451924,288.08777 57.793827,187.94365 124.5454,92.592783 224.70529,74.931886 307.892,60.263826 387.7667,103.84177 422.55496,176.42963 c 4.67,9.7441 15.14917,15.28965 25.79002,13.41339 l 16.39508,-2.89089 c 15.47034,-2.72785 24.16459,-19.32372 17.66358,-33.62409 C 436.53043,52.409664 326.5366,-8.6263666 212.28056,12.138444 77.435712,36.646335 -11.565855,164.80532 12.517935,299.72697 36.542911,434.32086 165.01141,524.12182 299.72128,500.36884 413.59757,480.28938 495.52517,385.48246 503.97236,275.27026 c 1.19215,-15.55431 -12.74793,-28.00073 -28.11094,-25.29183 z"
     id="path69890"
     style="fill:#322b1d;fill-opacity:1;stroke:#d09430;stroke-width:6;stroke-miterlimit:4;stroke-dasharray:none;stroke-opacity:0.58039216"
     inkscape:connector-curvature="0" />
</svg>
