<?xml version="1.0" encoding="UTF-8" standalone="no"?>
<svg
   xmlns:dc="http://purl.org/dc/elements/1.1/"
   xmlns:cc="http://creativecommons.org/ns#"
   xmlns:rdf="http://www.w3.org/1999/02/22-rdf-syntax-ns#"
   xmlns:svg="http://www.w3.org/2000/svg"
   xmlns="http://www.w3.org/2000/svg"
   xmlns:sodipodi="http://sodipodi.sourceforge.net/DTD/sodipodi-0.dtd"
   xmlns:inkscape="http://www.inkscape.org/namespaces/inkscape"
   class="svg-inline--fa fa-circle-notch fa-w-16 fa-3x"
   role="img"
   aria-hidden="true"
   viewBox="0 0 512 512"
   focusable="false"
   data-prefix="fas"
   data-icon="circle-notch"
   version="1.1"
   id="svg69892"
   sodipodi:docname="spinner-017.svg"
   inkscape:version="0.92.4 (5da689c313, 2019-01-14)">
  <metadata
     id="metadata69898">
    <rdf:RDF>
      <cc:Work
         rdf:about="">
        <dc:format>image/svg+xml</dc:format>
        <dc:type
           rdf:resource="http://purl.org/dc/dcmitype/StillImage" />
        <dc:title></dc:title>
      </cc:Work>
    </rdf:RDF>
  </metadata>
  <defs
     id="defs69896" />
  <sodipodi:namedview
     pagecolor="#ffffff"
     bordercolor="#666666"
     borderopacity="1"
     objecttolerance="10"
     gridtolerance="10"
     guidetolerance="10"
     inkscape:pageopacity="0"
     inkscape:pageshadow="2"
     inkscape:window-width="1002"
     inkscape:window-height="687"
     id="namedview69894"
     showgrid="false"
     inkscape:zoom="0.4609375"
     inkscape:cx="236.47458"
     inkscape:cy="256"
     inkscape:window-x="376"
     inkscape:window-y="62"
     inkscape:window-maximized="0"
     inkscape:current-layer="svg69892" />
  <path
     class=""
     d="m 262.67282,476.05707 -2.8928,-16.40592 C 257.90392,449.01129 249.10909,441.06273 238.35731,440.00674 158.25699,432.14353 89.980241,372.002 75.310102,288.80347 57.651996,188.65933 124.40358,93.308442 224.56348,75.647555 324.70761,57.989473 420.05846,124.74104 437.71937,224.90095 c 14.66805,83.1867 -28.9099,163.0614 -101.49775,197.84965 -9.74409,4.67001 -15.28965,15.14916 -13.41339,25.79002 l 2.89088,16.39509 c 2.72785,15.47032 19.32373,24.16458 33.62411,17.66358 C 460.2416,436.72608 521.27762,326.73225 500.51281,212.4762 476.00491,77.631356 347.84593,-11.370212 212.92428,12.713574 78.330387,36.738551 -11.470583,165.20706 12.282411,299.91692 32.361862,413.79322 127.16878,495.7208 237.38098,504.168 c 15.55431,1.19216 28.00074,-12.74794 25.29184,-28.11093 z"
     id="path69890"
     style="fill:#322b1d;fill-opacity:1;stroke:#d09430;stroke-width:6;stroke-miterlimit:4;stroke-dasharray:none;stroke-opacity:0.58039216"
     inkscape:connector-curvature="0" />
</svg>
