<?xml version="1.0" encoding="UTF-8" standalone="no"?>
<svg
   xmlns:dc="http://purl.org/dc/elements/1.1/"
   xmlns:cc="http://creativecommons.org/ns#"
   xmlns:rdf="http://www.w3.org/1999/02/22-rdf-syntax-ns#"
   xmlns:svg="http://www.w3.org/2000/svg"
   xmlns="http://www.w3.org/2000/svg"
   xmlns:sodipodi="http://sodipodi.sourceforge.net/DTD/sodipodi-0.dtd"
   xmlns:inkscape="http://www.inkscape.org/namespaces/inkscape"
   class="svg-inline--fa fa-circle-notch fa-w-16 fa-3x"
   role="img"
   aria-hidden="true"
   viewBox="0 0 512 512"
   focusable="false"
   data-prefix="fas"
   data-icon="circle-notch"
   version="1.1"
   id="svg69892"
   sodipodi:docname="spinner-036.svg"
   inkscape:version="0.92.4 (5da689c313, 2019-01-14)">
  <metadata
     id="metadata69898">
    <rdf:RDF>
      <cc:Work
         rdf:about="">
        <dc:format>image/svg+xml</dc:format>
        <dc:type
           rdf:resource="http://purl.org/dc/dcmitype/StillImage" />
        <dc:title></dc:title>
      </cc:Work>
    </rdf:RDF>
  </metadata>
  <defs
     id="defs69896" />
  <sodipodi:namedview
     pagecolor="#ffffff"
     bordercolor="#666666"
     borderopacity="1"
     objecttolerance="10"
     gridtolerance="10"
     guidetolerance="10"
     inkscape:pageopacity="0"
     inkscape:pageshadow="2"
     inkscape:window-width="1002"
     inkscape:window-height="687"
     id="namedview69894"
     showgrid="false"
     inkscape:zoom="0.4609375"
     inkscape:cx="236.47458"
     inkscape:cy="256"
     inkscape:window-x="376"
     inkscape:window-y="62"
     inkscape:window-maximized="0"
     inkscape:current-layer="svg69892" />
  <path
     class=""
     d="m 287.45361,38.524143 5e-5,16.659009 c -2e-5,10.80402 7.28098,20.159018 17.68602,23.065987 77.51796,21.653009 134.31396,92.737031 134.31399,177.219021 -6e-5,101.68904 -82.29502,184 -184.00007,184.00002 C 153.76461,439.46815 71.453619,357.1732 71.453623,255.4681 71.453629,170.99815 128.23966,99.904176 205.76562,78.24917 216.17261,75.342144 223.45363,65.98518 223.45367,55.180181 l -2e-5,-16.648021 c 0,-15.708955 -14.83403,-27.152996 -30.04606,-23.234002 C 86.056626,42.950172 6.8476474,140.67414 7.4566377,256.80017 8.1766367,393.85219 118.93363,503.75616 255.98763,503.46716 392.70865,503.17917 503.45364,392.25619 503.45366,255.46821 c 0,-115.63307 -79.14001,-212.779006 -186.21101,-240.236042 -15.11099,-3.875017 -29.78898,7.692013 -29.78904,23.291975 z"
     id="path69890"
     style="fill:#322b1d;fill-opacity:1;stroke:#d09430;stroke-width:6;stroke-miterlimit:4;stroke-dasharray:none;stroke-opacity:0.58039216"
     inkscape:connector-curvature="0" />
</svg>
