<?xml version="1.0" encoding="UTF-8" standalone="no"?>
<svg
   xmlns:dc="http://purl.org/dc/elements/1.1/"
   xmlns:cc="http://creativecommons.org/ns#"
   xmlns:rdf="http://www.w3.org/1999/02/22-rdf-syntax-ns#"
   xmlns:svg="http://www.w3.org/2000/svg"
   xmlns="http://www.w3.org/2000/svg"
   xmlns:sodipodi="http://sodipodi.sourceforge.net/DTD/sodipodi-0.dtd"
   xmlns:inkscape="http://www.inkscape.org/namespaces/inkscape"
   class="svg-inline--fa fa-circle-notch fa-w-16 fa-3x"
   role="img"
   aria-hidden="true"
   viewBox="0 0 512 512"
   focusable="false"
   data-prefix="fas"
   data-icon="circle-notch"
   version="1.1"
   id="svg69892"
   sodipodi:docname="spinner-020.svg"
   inkscape:version="0.92.4 (5da689c313, 2019-01-14)">
  <metadata
     id="metadata69898">
    <rdf:RDF>
      <cc:Work
         rdf:about="">
        <dc:format>image/svg+xml</dc:format>
        <dc:type
           rdf:resource="http://purl.org/dc/dcmitype/StillImage" />
        <dc:title></dc:title>
      </cc:Work>
    </rdf:RDF>
  </metadata>
  <defs
     id="defs69896" />
  <sodipodi:namedview
     pagecolor="#ffffff"
     bordercolor="#666666"
     borderopacity="1"
     objecttolerance="10"
     gridtolerance="10"
     guidetolerance="10"
     inkscape:pageopacity="0"
     inkscape:pageshadow="2"
     inkscape:window-width="1002"
     inkscape:window-height="687"
     id="namedview69894"
     showgrid="false"
     inkscape:zoom="0.4609375"
     inkscape:cx="236.47458"
     inkscape:cy="256"
     inkscape:window-x="376"
     inkscape:window-y="62"
     inkscape:window-maximized="0"
     inkscape:current-layer="svg69892" />
  <path
     class=""
     d="m 151.51916,449.70197 5.69772,-15.65435 c 3.69518,-10.15244 0.0529,-21.4335 -8.73041,-27.72391 C 83.049169,359.46381 53.990536,273.24133 82.885085,193.85423 117.66479,98.297807 223.14879,49.09731 318.72027,83.882485 414.27667,118.6622 463.47714,224.14618 428.69198,319.71767 399.80153,399.09348 322.12457,446.47803 241.86752,440.31161 c -10.77363,-0.8277 -20.8158,5.47473 -24.51134,15.62812 l -5.69397,15.644 c -5.37277,14.76161 4.65255,30.589 20.28755,32.10917 C 342.28423,514.42472 450.13989,449.68528 489.28507,340.35423 535.48303,211.32122 468.99488,70.164112 340.10741,23.560456 211.53319,-22.930248 69.529014,43.426256 22.74478,171.96491 c -39.548839,108.65951 1.592573,227.01432 92.81554,289.43592 12.87434,8.80958 30.62332,2.96032 35.95884,-11.69886 z"
     id="path69890"
     style="fill:#322b1d;fill-opacity:1;stroke:#d09430;stroke-width:6;stroke-miterlimit:4;stroke-dasharray:none;stroke-opacity:0.58039216"
     inkscape:connector-curvature="0" />
</svg>
