<?xml version="1.0" encoding="UTF-8" standalone="no"?>
<svg
   xmlns:dc="http://purl.org/dc/elements/1.1/"
   xmlns:cc="http://creativecommons.org/ns#"
   xmlns:rdf="http://www.w3.org/1999/02/22-rdf-syntax-ns#"
   xmlns:svg="http://www.w3.org/2000/svg"
   xmlns="http://www.w3.org/2000/svg"
   xmlns:sodipodi="http://sodipodi.sourceforge.net/DTD/sodipodi-0.dtd"
   xmlns:inkscape="http://www.inkscape.org/namespaces/inkscape"
   class="svg-inline--fa fa-circle-notch fa-w-16 fa-3x"
   role="img"
   aria-hidden="true"
   viewBox="0 0 512 512"
   focusable="false"
   data-prefix="fas"
   data-icon="circle-notch"
   version="1.1"
   id="svg69892"
   sodipodi:docname="spinner-012.svg"
   inkscape:version="0.92.4 (5da689c313, 2019-01-14)">
  <metadata
     id="metadata69898">
    <rdf:RDF>
      <cc:Work
         rdf:about="">
        <dc:format>image/svg+xml</dc:format>
        <dc:type
           rdf:resource="http://purl.org/dc/dcmitype/StillImage" />
        <dc:title></dc:title>
      </cc:Work>
    </rdf:RDF>
  </metadata>
  <defs
     id="defs69896" />
  <sodipodi:namedview
     pagecolor="#ffffff"
     bordercolor="#666666"
     borderopacity="1"
     objecttolerance="10"
     gridtolerance="10"
     guidetolerance="10"
     inkscape:pageopacity="0"
     inkscape:pageshadow="2"
     inkscape:window-width="1002"
     inkscape:window-height="687"
     id="namedview69894"
     showgrid="false"
     inkscape:zoom="0.4609375"
     inkscape:cx="236.47458"
     inkscape:cy="256"
     inkscape:window-x="376"
     inkscape:window-y="62"
     inkscape:window-maximized="0"
     inkscape:current-layer="svg69892" />
  <path
     class=""
     d="m 428.46126,393.04656 -14.42712,-8.32951 c -9.35654,-5.402 -21.09869,-3.77399 -28.81874,3.78355 -57.51106,56.30603 -147.46958,69.95083 -220.63316,27.70982 C 76.516983,365.36591 46.381055,252.94086 97.233575,164.86173 148.07809,76.796479 260.50311,46.660568 348.58226,97.513074 421.73541,139.74807 454.91163,224.47319 434.9024,302.44017 c -2.68596,10.46623 1.77694,21.45024 11.13434,26.85275 l 14.41759,8.32401 c 13.60438,7.85449 30.93219,0.72987 35.14423,-14.40362 C 525.32673,216.41863 480.29977,98.959642 379.4272,41.424041 260.37668,-26.478421 109.81852,14.487949 41.541807,133.32469 -26.569278,251.87255 14.120359,403.24205 132.58223,471.63603 c 100.14113,57.81652 223.84202,37.85224 301.15598,-41.14545 10.91136,-11.14899 8.23304,-29.64402 -5.27695,-37.44402 z"
     id="path69890"
     style="fill:#322b1d;fill-opacity:1;stroke:#d09430;stroke-width:6;stroke-miterlimit:4;stroke-dasharray:none;stroke-opacity:0.58039216"
     inkscape:connector-curvature="0" />
</svg>
