<?xml version="1.0" encoding="UTF-8" standalone="no"?>
<svg
   xmlns:dc="http://purl.org/dc/elements/1.1/"
   xmlns:cc="http://creativecommons.org/ns#"
   xmlns:rdf="http://www.w3.org/1999/02/22-rdf-syntax-ns#"
   xmlns:svg="http://www.w3.org/2000/svg"
   xmlns="http://www.w3.org/2000/svg"
   xmlns:sodipodi="http://sodipodi.sourceforge.net/DTD/sodipodi-0.dtd"
   xmlns:inkscape="http://www.inkscape.org/namespaces/inkscape"
   class="svg-inline--fa fa-circle-notch fa-w-16 fa-3x"
   role="img"
   aria-hidden="true"
   viewBox="0 0 512 512"
   focusable="false"
   data-prefix="fas"
   data-icon="circle-notch"
   version="1.1"
   id="svg69892"
   sodipodi:docname="spinner-004.svg"
   inkscape:version="0.92.4 (5da689c313, 2019-01-14)">
  <metadata
     id="metadata69898">
    <rdf:RDF>
      <cc:Work
         rdf:about="">
        <dc:format>image/svg+xml</dc:format>
        <dc:type
           rdf:resource="http://purl.org/dc/dcmitype/StillImage" />
        <dc:title></dc:title>
      </cc:Work>
    </rdf:RDF>
  </metadata>
  <defs
     id="defs69896" />
  <sodipodi:namedview
     pagecolor="#ffffff"
     bordercolor="#666666"
     borderopacity="1"
     objecttolerance="10"
     gridtolerance="10"
     guidetolerance="10"
     inkscape:pageopacity="0"
     inkscape:pageshadow="2"
     inkscape:window-width="1002"
     inkscape:window-height="687"
     id="namedview69894"
     showgrid="false"
     inkscape:zoom="0.4609375"
     inkscape:cx="236.47458"
     inkscape:cy="256"
     inkscape:window-x="376"
     inkscape:window-y="62"
     inkscape:window-maximized="0"
     inkscape:current-layer="svg69892" />
  <path
     class=""
     d="m 420.62655,110.463 -10.7082,12.76153 c -6.94468,8.27635 -7.38041,20.12282 -1.27827,29.03792 45.46394,66.41477 43.28029,157.37603 -11.0237,222.09301 -65.36442,77.89829 -181.31453,88.05397 -259.22509,22.67925 C 60.493,331.67027 50.337314,215.72018 115.71203,137.80961 170.0083,73.101843 259.20724,55.142017 332.51517,88.386078 c 9.84081,4.462598 21.43294,1.974856 28.37826,-6.302254 L 371.59456,69.330716 C 381.69211,57.296923 377.68467,38.995199 363.51251,32.219242 263.50251,-15.601989 140.00913,8.3443765 65.831294,97.693507 -21.712482,203.14424 -7.5126304,358.52882 97.662588,446.40404 202.58207,534.06598 358.7176,520.27955 446.64322,415.49387 520.97069,326.91385 522.79017,201.62548 458.41805,111.76829 449.33317,99.086705 430.65403,98.512702 420.62655,110.463 Z"
     id="path69890"
     style="fill:#322b1d;fill-opacity:1;stroke:#d09430;stroke-width:6;stroke-miterlimit:4;stroke-dasharray:none;stroke-opacity:0.58039216"
     inkscape:connector-curvature="0" />
</svg>
