<?xml version="1.0" encoding="UTF-8" standalone="no"?>
<svg
   xmlns:dc="http://purl.org/dc/elements/1.1/"
   xmlns:cc="http://creativecommons.org/ns#"
   xmlns:rdf="http://www.w3.org/1999/02/22-rdf-syntax-ns#"
   xmlns:svg="http://www.w3.org/2000/svg"
   xmlns="http://www.w3.org/2000/svg"
   xmlns:sodipodi="http://sodipodi.sourceforge.net/DTD/sodipodi-0.dtd"
   xmlns:inkscape="http://www.inkscape.org/namespaces/inkscape"
   class="svg-inline--fa fa-circle-notch fa-w-16 fa-3x"
   role="img"
   aria-hidden="true"
   viewBox="0 0 512 512"
   focusable="false"
   data-prefix="fas"
   data-icon="circle-notch"
   version="1.1"
   id="svg69892"
   sodipodi:docname="spinner-003.svg"
   inkscape:version="0.92.4 (5da689c313, 2019-01-14)">
  <metadata
     id="metadata69898">
    <rdf:RDF>
      <cc:Work
         rdf:about="">
        <dc:format>image/svg+xml</dc:format>
        <dc:type
           rdf:resource="http://purl.org/dc/dcmitype/StillImage" />
        <dc:title></dc:title>
      </cc:Work>
    </rdf:RDF>
  </metadata>
  <defs
     id="defs69896" />
  <sodipodi:namedview
     pagecolor="#ffffff"
     bordercolor="#666666"
     borderopacity="1"
     objecttolerance="10"
     gridtolerance="10"
     guidetolerance="10"
     inkscape:pageopacity="0"
     inkscape:pageshadow="2"
     inkscape:window-width="1002"
     inkscape:window-height="687"
     id="namedview69894"
     showgrid="false"
     inkscape:zoom="0.4609375"
     inkscape:cx="236.47458"
     inkscape:cy="256"
     inkscape:window-x="376"
     inkscape:window-y="62"
     inkscape:window-maximized="0"
     inkscape:current-layer="svg69892" />
  <path
     class=""
     d="m 392.85091,84.189993 -8.3295,14.427116 c -5.402,9.356541 -3.77399,21.098701 3.78353,28.818741 56.30605,57.51105 69.95083,147.46959 27.70983,220.63316 C 365.17027,436.13426 252.74522,466.27018 164.6661,415.41768 76.600842,364.57317 46.464921,252.14813 97.317424,164.069 139.55242,90.915842 224.27754,57.739632 302.24453,77.748852 c 10.46622,2.685964 21.45025,-1.776937 26.85275,-11.134341 l 8.324,-14.417591 c 7.8545,-13.604394 0.72988,-30.932189 -14.4036,-35.144235 C 216.22299,-12.67548 98.763987,32.351488 41.228396,133.22405 -26.674065,252.27457 14.292308,402.83273 133.12905,471.10944 251.67691,539.22052 403.0464,498.53089 471.44039,380.06901 529.2569,279.92789 509.29264,156.22699 430.29494,78.913028 c -11.149,-10.911347 -29.64403,-8.233032 -37.44403,5.276965 z"
     id="path69890"
     style="fill:#322b1d;fill-opacity:1;stroke:#d09430;stroke-width:6;stroke-miterlimit:4;stroke-dasharray:none;stroke-opacity:0.58039216"
     inkscape:connector-curvature="0" />
</svg>
