<?xml version="1.0" encoding="UTF-8" standalone="no"?>
<svg
   xmlns:dc="http://purl.org/dc/elements/1.1/"
   xmlns:cc="http://creativecommons.org/ns#"
   xmlns:rdf="http://www.w3.org/1999/02/22-rdf-syntax-ns#"
   xmlns:svg="http://www.w3.org/2000/svg"
   xmlns="http://www.w3.org/2000/svg"
   xmlns:sodipodi="http://sodipodi.sourceforge.net/DTD/sodipodi-0.dtd"
   xmlns:inkscape="http://www.inkscape.org/namespaces/inkscape"
   class="svg-inline--fa fa-circle-notch fa-w-16 fa-3x"
   role="img"
   aria-hidden="true"
   viewBox="0 0 512 512"
   focusable="false"
   data-prefix="fas"
   data-icon="circle-notch"
   version="1.1"
   id="svg69892"
   sodipodi:docname="spinner-015.svg"
   inkscape:version="0.92.4 (5da689c313, 2019-01-14)">
  <metadata
     id="metadata69898">
    <rdf:RDF>
      <cc:Work
         rdf:about="">
        <dc:format>image/svg+xml</dc:format>
        <dc:type
           rdf:resource="http://purl.org/dc/dcmitype/StillImage" />
        <dc:title></dc:title>
      </cc:Work>
    </rdf:RDF>
  </metadata>
  <defs
     id="defs69896" />
  <sodipodi:namedview
     pagecolor="#ffffff"
     bordercolor="#666666"
     borderopacity="1"
     objecttolerance="10"
     gridtolerance="10"
     guidetolerance="10"
     inkscape:pageopacity="0"
     inkscape:pageshadow="2"
     inkscape:window-width="1002"
     inkscape:window-height="687"
     id="namedview69894"
     showgrid="false"
     inkscape:zoom="0.4609375"
     inkscape:cx="236.47458"
     inkscape:cy="256"
     inkscape:window-x="376"
     inkscape:window-y="62"
     inkscape:window-maximized="0"
     inkscape:current-layer="svg69892" />
  <path
     class=""
     d="m 337.29466,460.73411 -8.3295,-14.42713 c -5.402,-9.35654 -16.385,-13.81772 -26.84954,-11.13271 C 224.15657,455.18119 139.4278,422.01867 97.186798,348.8551 46.342297,260.78983 76.456344,148.35891 164.53548,97.506401 252.60076,46.661922 365.03163,76.775965 415.88416,164.85511 c 42.23499,73.15315 28.60387,163.11536 -27.70812,220.63213 -7.55921,7.72105 -9.18625,19.46492 -3.78375,28.82234 l 8.32399,14.4176 c 7.8545,13.60437 26.42313,16.09818 37.63762,5.09822 79.14269,-77.62284 98.87769,-201.85878 40.28728,-302.12236 C 401.49164,13.37253 250.62126,-26.428634 132.07352,42.348645 13.813659,110.95856 -26.632832,262.39321 41.761168,380.85507 99.577667,480.99621 216.68792,525.55708 323.14262,495.80006 c 15.02401,-4.19963 21.95203,-21.55597 14.15204,-35.06595 z"
     id="path69890"
     style="fill:#322b1d;fill-opacity:1;stroke:#d09430;stroke-width:6;stroke-miterlimit:4;stroke-dasharray:none;stroke-opacity:0.58039216"
     inkscape:connector-curvature="0" />
</svg>
