<?xml version="1.0" encoding="UTF-8" standalone="no"?>
<svg
   xmlns:dc="http://purl.org/dc/elements/1.1/"
   xmlns:cc="http://creativecommons.org/ns#"
   xmlns:rdf="http://www.w3.org/1999/02/22-rdf-syntax-ns#"
   xmlns:svg="http://www.w3.org/2000/svg"
   xmlns="http://www.w3.org/2000/svg"
   xmlns:sodipodi="http://sodipodi.sourceforge.net/DTD/sodipodi-0.dtd"
   xmlns:inkscape="http://www.inkscape.org/namespaces/inkscape"
   class="svg-inline--fa fa-circle-notch fa-w-16 fa-3x"
   role="img"
   aria-hidden="true"
   viewBox="0 0 512 512"
   focusable="false"
   data-prefix="fas"
   data-icon="circle-notch"
   version="1.1"
   id="svg69892"
   sodipodi:docname="spinner-027.svg"
   inkscape:version="0.92.4 (5da689c313, 2019-01-14)">
  <metadata
     id="metadata69898">
    <rdf:RDF>
      <cc:Work
         rdf:about="">
        <dc:format>image/svg+xml</dc:format>
        <dc:type
           rdf:resource="http://purl.org/dc/dcmitype/StillImage" />
        <dc:title></dc:title>
      </cc:Work>
    </rdf:RDF>
  </metadata>
  <defs
     id="defs69896" />
  <sodipodi:namedview
     pagecolor="#ffffff"
     bordercolor="#666666"
     borderopacity="1"
     objecttolerance="10"
     gridtolerance="10"
     guidetolerance="10"
     inkscape:pageopacity="0"
     inkscape:pageshadow="2"
     inkscape:window-width="1002"
     inkscape:window-height="687"
     id="namedview69894"
     showgrid="false"
     inkscape:zoom="0.4609375"
     inkscape:cx="236.47458"
     inkscape:cy="256"
     inkscape:window-x="376"
     inkscape:window-y="62"
     inkscape:window-maximized="0"
     inkscape:current-layer="svg69892" />
  <path
     class=""
     d="m 38.860344,224.65126 16.659016,-1e-5 c 10.804007,0 20.159002,-7.28097 23.065983,-17.68604 C 100.23837,129.44724 171.32237,72.651229 255.80434,72.65123 c 101.68904,2.1e-5 184.00003,82.295 184.00003,184.00004 -4e-5,101.68901 -82.29499,183.99997 -184.00005,183.99999 -84.46998,-10e-6 -155.56396,-56.78603 -177.218951,-134.31201 -2.90703,-10.40699 -12.263995,-17.68799 -23.069004,-17.688 l -16.648015,-2e-5 c -15.708959,2e-5 -27.15299,14.83403 -23.233992,30.04606 27.651997,107.35097 125.375972,186.55995 241.502012,185.95096 137.05199,-0.72 246.95599,-111.477 246.66699,-248.531 C 503.51537,119.39625 392.59237,8.6512425 255.80439,8.6512485 140.17134,8.6512378 43.025395,87.79125 15.568371,194.86224 c -3.875015,15.11098 7.692004,29.78899 23.291973,29.78902 z"
     id="path69890"
     style="fill:#322b1d;fill-opacity:1;stroke:#d09430;stroke-width:6;stroke-miterlimit:4;stroke-dasharray:none;stroke-opacity:0.58039216"
     inkscape:connector-curvature="0" />
</svg>
