<?xml version="1.0" encoding="UTF-8" standalone="no"?>
<svg
   xmlns:dc="http://purl.org/dc/elements/1.1/"
   xmlns:cc="http://creativecommons.org/ns#"
   xmlns:rdf="http://www.w3.org/1999/02/22-rdf-syntax-ns#"
   xmlns:svg="http://www.w3.org/2000/svg"
   xmlns="http://www.w3.org/2000/svg"
   xmlns:sodipodi="http://sodipodi.sourceforge.net/DTD/sodipodi-0.dtd"
   xmlns:inkscape="http://www.inkscape.org/namespaces/inkscape"
   class="svg-inline--fa fa-circle-notch fa-w-16 fa-3x"
   role="img"
   aria-hidden="true"
   viewBox="0 0 512 512"
   focusable="false"
   data-prefix="fas"
   data-icon="circle-notch"
   version="1.1"
   id="svg69892"
   sodipodi:docname="spinner-032.svg"
   inkscape:version="0.92.4 (5da689c313, 2019-01-14)">
  <metadata
     id="metadata69898">
    <rdf:RDF>
      <cc:Work
         rdf:about="">
        <dc:format>image/svg+xml</dc:format>
        <dc:type
           rdf:resource="http://purl.org/dc/dcmitype/StillImage" />
        <dc:title></dc:title>
      </cc:Work>
    </rdf:RDF>
  </metadata>
  <defs
     id="defs69896" />
  <sodipodi:namedview
     pagecolor="#ffffff"
     bordercolor="#666666"
     borderopacity="1"
     objecttolerance="10"
     gridtolerance="10"
     guidetolerance="10"
     inkscape:pageopacity="0"
     inkscape:pageshadow="2"
     inkscape:window-width="1002"
     inkscape:window-height="687"
     id="namedview69894"
     showgrid="false"
     inkscape:zoom="0.4609375"
     inkscape:cx="236.47458"
     inkscape:cy="256"
     inkscape:window-x="376"
     inkscape:window-y="62"
     inkscape:window-maximized="0"
     inkscape:current-layer="svg69892" />
  <path
     class=""
     d="m 140.42175,68.699658 10.70823,12.761519 c 6.94468,8.276368 18.53552,10.762576 28.37481,6.301214 73.30049,-33.240418 162.50069,-15.294673 216.80467,49.422269 65.36443,77.89837 55.23129,193.85039 -22.67929,259.22516 C 295.73186,461.77423 179.77981,451.64111 114.40504,373.7305 60.108807,309.02275 57.91111,218.06025 103.37987,151.63883 c 6.10361,-8.9164 5.66666,-20.7644 -1.27864,-29.04153 L 91.400078,109.84419 C 81.302554,97.810434 62.582948,98.578913 53.448939,111.35914 -11.012303,201.54568 -8.8741437,327.32114 66.236739,415.88738 154.88363,520.41251 310.37333,533.41062 415.17701,445.09262 519.72627,356.98943 533.26194,200.83199 445.33633,96.046302 371.00883,7.4662362 247.93986,-16.081651 148.26968,31.708948 c -14.0665,6.744722 -17.87536,25.040414 -7.84793,36.99071 z"
     id="path69890"
     style="fill:#322b1d;fill-opacity:1;stroke:#d09430;stroke-width:6;stroke-miterlimit:4;stroke-dasharray:none;stroke-opacity:0.58039216"
     inkscape:connector-curvature="0" />
</svg>
