<?xml version="1.0" encoding="UTF-8" standalone="no"?>
<svg
   xmlns:dc="http://purl.org/dc/elements/1.1/"
   xmlns:cc="http://creativecommons.org/ns#"
   xmlns:rdf="http://www.w3.org/1999/02/22-rdf-syntax-ns#"
   xmlns:svg="http://www.w3.org/2000/svg"
   xmlns="http://www.w3.org/2000/svg"
   xmlns:sodipodi="http://sodipodi.sourceforge.net/DTD/sodipodi-0.dtd"
   xmlns:inkscape="http://www.inkscape.org/namespaces/inkscape"
   class="svg-inline--fa fa-circle-notch fa-w-16 fa-3x"
   role="img"
   aria-hidden="true"
   viewBox="0 0 512 512"
   focusable="false"
   data-prefix="fas"
   data-icon="circle-notch"
   version="1.1"
   id="svg69892"
   sodipodi:docname="spinner-006.svg"
   inkscape:version="0.92.4 (5da689c313, 2019-01-14)">
  <metadata
     id="metadata69898">
    <rdf:RDF>
      <cc:Work
         rdf:about="">
        <dc:format>image/svg+xml</dc:format>
        <dc:type
           rdf:resource="http://purl.org/dc/dcmitype/StillImage" />
        <dc:title></dc:title>
      </cc:Work>
    </rdf:RDF>
  </metadata>
  <defs
     id="defs69896" />
  <sodipodi:namedview
     pagecolor="#ffffff"
     bordercolor="#666666"
     borderopacity="1"
     objecttolerance="10"
     gridtolerance="10"
     guidetolerance="10"
     inkscape:pageopacity="0"
     inkscape:pageshadow="2"
     inkscape:window-width="1002"
     inkscape:window-height="687"
     id="namedview69894"
     showgrid="false"
     inkscape:zoom="0.4609375"
     inkscape:cx="236.47458"
     inkscape:cy="256"
     inkscape:window-x="376"
     inkscape:window-y="62"
     inkscape:window-maximized="0"
     inkscape:current-layer="svg69892" />
  <path
     class=""
     d="m 460.53846,175.35659 -14.42712,8.3295 c -9.35654,5.402 -13.81772,16.38501 -11.13273,26.84953 20.00694,77.95905 -13.1556,162.68782 -86.31917,204.92883 C 260.59419,466.30895 148.16327,436.1949 97.31077,348.11577 46.466279,260.0505 76.580321,147.61961 164.65945,96.767097 237.81261,54.532101 327.77482,68.163219 385.2916,124.47521 c 7.72104,7.55922 19.46493,9.18625 28.82234,3.78375 l 14.41759,-8.324 c 13.60439,-7.8545 16.09819,-26.423119 5.09822,-37.637601 C 356.00692,3.1546665 231.77097,-16.580334 131.5074,42.010071 13.176885,111.15961 -26.624277,262.02999 42.153006,380.57773 110.76292,498.83759 262.19756,539.28407 380.65943,470.89008 480.80056,413.07358 525.36145,295.96332 495.60442,189.50862 491.40478,174.48461 474.04846,167.55659 460.53846,175.35659 Z"
     id="path69890"
     style="fill:#322b1d;fill-opacity:1;stroke:#d09430;stroke-width:6;stroke-miterlimit:4;stroke-dasharray:none;stroke-opacity:0.58039216"
     inkscape:connector-curvature="0" />
</svg>
