<?xml version="1.0" encoding="UTF-8" standalone="no"?>
<svg
   xmlns:dc="http://purl.org/dc/elements/1.1/"
   xmlns:cc="http://creativecommons.org/ns#"
   xmlns:rdf="http://www.w3.org/1999/02/22-rdf-syntax-ns#"
   xmlns:svg="http://www.w3.org/2000/svg"
   xmlns="http://www.w3.org/2000/svg"
   xmlns:sodipodi="http://sodipodi.sourceforge.net/DTD/sodipodi-0.dtd"
   xmlns:inkscape="http://www.inkscape.org/namespaces/inkscape"
   class="svg-inline--fa fa-circle-notch fa-w-16 fa-3x"
   role="img"
   aria-hidden="true"
   viewBox="0 0 512 512"
   focusable="false"
   data-prefix="fas"
   data-icon="circle-notch"
   version="1.1"
   id="svg69892"
   sodipodi:docname="spinner-011.svg"
   inkscape:version="0.92.4 (5da689c313, 2019-01-14)">
  <metadata
     id="metadata69898">
    <rdf:RDF>
      <cc:Work
         rdf:about="">
        <dc:format>image/svg+xml</dc:format>
        <dc:type
           rdf:resource="http://purl.org/dc/dcmitype/StillImage" />
        <dc:title></dc:title>
      </cc:Work>
    </rdf:RDF>
  </metadata>
  <defs
     id="defs69896" />
  <sodipodi:namedview
     pagecolor="#ffffff"
     bordercolor="#666666"
     borderopacity="1"
     objecttolerance="10"
     gridtolerance="10"
     guidetolerance="10"
     inkscape:pageopacity="0"
     inkscape:pageshadow="2"
     inkscape:window-width="1002"
     inkscape:window-height="687"
     id="namedview69894"
     showgrid="false"
     inkscape:zoom="0.4609375"
     inkscape:cx="236.47458"
     inkscape:cy="256"
     inkscape:window-x="376"
     inkscape:window-y="62"
     inkscape:window-maximized="0"
     inkscape:current-layer="svg69892" />
  <path
     class=""
     d="m 449.50632,361.13209 -15.65434,-5.69772 c -10.15244,-3.69518 -21.4335,-0.0529 -27.72391,8.73039 -46.8599,65.43731 -133.08235,94.49595 -212.46949,65.60139 C 98.102177,394.98646 48.901676,289.50245 83.686852,193.93099 118.46655,98.37459 223.95054,49.17411 319.52201,83.95927 c 79.37582,28.89044 126.76038,106.5674 120.59396,186.82446 -0.82771,10.77363 5.47474,20.8158 15.62812,24.51134 l 15.644,5.69396 c 14.76162,5.37278 30.589,-4.65254 32.10915,-20.28753 C 514.22907,170.36703 449.48963,62.511355 340.15859,23.366187 211.12558,-22.831779 69.96847,43.65637 23.364817,172.54384 -23.125888,301.11806 43.230619,443.12223 171.76928,489.90647 c 108.65949,39.54883 227.01433,-1.59258 289.43591,-92.81555 8.80959,-12.87435 2.96033,-30.62331 -11.69887,-35.95883 z"
     id="path69890"
     style="fill:#322b1d;fill-opacity:1;stroke:#d09430;stroke-width:6;stroke-miterlimit:4;stroke-dasharray:none;stroke-opacity:0.58039216"
     inkscape:connector-curvature="0" />
</svg>
