<?xml version="1.0" encoding="UTF-8" standalone="no"?>
<svg
   xmlns:dc="http://purl.org/dc/elements/1.1/"
   xmlns:cc="http://creativecommons.org/ns#"
   xmlns:rdf="http://www.w3.org/1999/02/22-rdf-syntax-ns#"
   xmlns:svg="http://www.w3.org/2000/svg"
   xmlns="http://www.w3.org/2000/svg"
   xmlns:sodipodi="http://sodipodi.sourceforge.net/DTD/sodipodi-0.dtd"
   xmlns:inkscape="http://www.inkscape.org/namespaces/inkscape"
   class="svg-inline--fa fa-circle-notch fa-w-16 fa-3x"
   role="img"
   aria-hidden="true"
   viewBox="0 0 512 512"
   focusable="false"
   data-prefix="fas"
   data-icon="circle-notch"
   version="1.1"
   id="svg69892"
   sodipodi:docname="spinner-021.svg"
   inkscape:version="0.92.4 (5da689c313, 2019-01-14)">
  <metadata
     id="metadata69898">
    <rdf:RDF>
      <cc:Work
         rdf:about="">
        <dc:format>image/svg+xml</dc:format>
        <dc:type
           rdf:resource="http://purl.org/dc/dcmitype/StillImage" />
        <dc:title></dc:title>
      </cc:Work>
    </rdf:RDF>
  </metadata>
  <defs
     id="defs69896" />
  <sodipodi:namedview
     pagecolor="#ffffff"
     bordercolor="#666666"
     borderopacity="1"
     objecttolerance="10"
     gridtolerance="10"
     guidetolerance="10"
     inkscape:pageopacity="0"
     inkscape:pageshadow="2"
     inkscape:window-width="1002"
     inkscape:window-height="687"
     id="namedview69894"
     showgrid="false"
     inkscape:zoom="0.4609375"
     inkscape:cx="236.47458"
     inkscape:cy="256"
     inkscape:window-x="376"
     inkscape:window-y="62"
     inkscape:window-maximized="0"
     inkscape:current-layer="svg69892" />
  <path
     class=""
     d="m 119.60469,428.65691 8.32951,-14.42713 c 5.402,-9.35654 3.77399,-21.09869 -3.78357,-28.81874 C 67.844609,327.89998 54.199818,237.94143 96.440819,164.77789 147.28534,76.712614 259.71038,46.576687 347.78953,97.429211 c 88.06525,50.844529 118.20115,163.269539 67.34864,251.348709 -42.235,73.15314 -126.96011,106.32934 -204.92709,86.32012 -10.46623,-2.68595 -21.45024,1.77693 -26.85275,11.13434 l -8.32402,14.41759 c -7.85447,13.60437 -0.72986,30.93219 14.40364,35.14425 C 296.23263,525.52238 413.6916,480.49542 471.22722,379.62284 539.12967,260.57232 498.1633,110.01416 379.32656,41.737447 260.7787,-26.373638 109.4092,14.315995 41.015221,132.77786 -16.801308,232.91901 3.1629765,356.61987 82.160665,433.93385 c 11.148982,10.91135 29.644025,8.23303 37.444025,-5.27694 z"
     id="path69890"
     style="fill:#322b1d;fill-opacity:1;stroke:#d09430;stroke-width:6;stroke-miterlimit:4;stroke-dasharray:none;stroke-opacity:0.58039216"
     inkscape:connector-curvature="0" />
</svg>
