<?xml version="1.0" encoding="UTF-8" standalone="no"?>
<svg
   xmlns:dc="http://purl.org/dc/elements/1.1/"
   xmlns:cc="http://creativecommons.org/ns#"
   xmlns:rdf="http://www.w3.org/1999/02/22-rdf-syntax-ns#"
   xmlns:svg="http://www.w3.org/2000/svg"
   xmlns="http://www.w3.org/2000/svg"
   xmlns:sodipodi="http://sodipodi.sourceforge.net/DTD/sodipodi-0.dtd"
   xmlns:inkscape="http://www.inkscape.org/namespaces/inkscape"
   class="svg-inline--fa fa-circle-notch fa-w-16 fa-3x"
   role="img"
   aria-hidden="true"
   viewBox="0 0 512 512"
   focusable="false"
   data-prefix="fas"
   data-icon="circle-notch"
   version="1.1"
   id="svg69892"
   sodipodi:docname="spinner-014.svg"
   inkscape:version="0.92.4 (5da689c313, 2019-01-14)">
  <metadata
     id="metadata69898">
    <rdf:RDF>
      <cc:Work
         rdf:about="">
        <dc:format>image/svg+xml</dc:format>
        <dc:type
           rdf:resource="http://purl.org/dc/dcmitype/StillImage" />
        <dc:title></dc:title>
      </cc:Work>
    </rdf:RDF>
  </metadata>
  <defs
     id="defs69896" />
  <sodipodi:namedview
     pagecolor="#ffffff"
     bordercolor="#666666"
     borderopacity="1"
     objecttolerance="10"
     gridtolerance="10"
     guidetolerance="10"
     inkscape:pageopacity="0"
     inkscape:pageshadow="2"
     inkscape:window-width="1002"
     inkscape:window-height="687"
     id="namedview69894"
     showgrid="false"
     inkscape:zoom="0.4609375"
     inkscape:cx="236.47458"
     inkscape:cy="256"
     inkscape:window-x="376"
     inkscape:window-y="62"
     inkscape:window-maximized="0"
     inkscape:current-layer="svg69892" />
  <path
     class=""
     d="m 371.48747,443.61541 -10.7082,-12.76155 c -6.94468,-8.27634 -18.5355,-10.76257 -28.37481,-6.30121 -73.30051,33.24042 -162.50067,15.29471 -216.80466,-49.42227 -65.364431,-77.8983 -55.231308,-193.85039 22.67926,-259.22512 77.89832,-65.364412 193.85036,-55.231285 259.22511,22.67929 54.29626,64.70776 56.494,155.67026 11.0252,222.0917 -6.10363,8.91639 -5.66664,20.76438 1.27868,29.0415 l 10.70112,12.75312 c 10.09754,12.03377 28.81712,11.26529 37.95111,-1.51494 C 522.92155,310.76938 520.78339,184.99391 445.67251,96.427683 357.02563,-8.0974332 201.53591,-21.095562 96.732227,67.222435 -7.817013,155.32562 -21.35268,311.4831 66.572947,416.26876 140.90041,504.8488 263.96941,528.39671 363.63957,480.6061 c 14.0665,-6.74472 17.87538,-25.04041 7.8479,-36.99069 z"
     id="path69890"
     style="fill:#322b1d;fill-opacity:1;stroke:#d09430;stroke-width:6;stroke-miterlimit:4;stroke-dasharray:none;stroke-opacity:0.58039216"
     inkscape:connector-curvature="0" />
</svg>
