<?xml version="1.0" encoding="UTF-8" standalone="no"?>
<svg
   xmlns:dc="http://purl.org/dc/elements/1.1/"
   xmlns:cc="http://creativecommons.org/ns#"
   xmlns:rdf="http://www.w3.org/1999/02/22-rdf-syntax-ns#"
   xmlns:svg="http://www.w3.org/2000/svg"
   xmlns="http://www.w3.org/2000/svg"
   xmlns:sodipodi="http://sodipodi.sourceforge.net/DTD/sodipodi-0.dtd"
   xmlns:inkscape="http://www.inkscape.org/namespaces/inkscape"
   class="svg-inline--fa fa-circle-notch fa-w-16 fa-3x"
   role="img"
   aria-hidden="true"
   viewBox="0 0 512 512"
   focusable="false"
   data-prefix="fas"
   data-icon="circle-notch"
   version="1.1"
   id="svg69892"
   sodipodi:docname="spinner-010.svg"
   inkscape:version="0.92.4 (5da689c313, 2019-01-14)">
  <metadata
     id="metadata69898">
    <rdf:RDF>
      <cc:Work
         rdf:about="">
        <dc:format>image/svg+xml</dc:format>
        <dc:type
           rdf:resource="http://purl.org/dc/dcmitype/StillImage" />
        <dc:title></dc:title>
      </cc:Work>
    </rdf:RDF>
  </metadata>
  <defs
     id="defs69896" />
  <sodipodi:namedview
     pagecolor="#ffffff"
     bordercolor="#666666"
     borderopacity="1"
     objecttolerance="10"
     gridtolerance="10"
     guidetolerance="10"
     inkscape:pageopacity="0"
     inkscape:pageshadow="2"
     inkscape:window-width="1002"
     inkscape:window-height="687"
     id="namedview69894"
     showgrid="false"
     inkscape:zoom="0.4609375"
     inkscape:cx="236.47458"
     inkscape:cy="256"
     inkscape:window-x="376"
     inkscape:window-y="62"
     inkscape:window-maximized="0"
     inkscape:current-layer="svg69892" />
  <path
     class=""
     d="m 464.6893,325.99058 -16.40591,-2.89281 c -10.63986,-1.87609 -21.11707,3.66978 -25.78671,13.41196 C 387.71176,409.09004 307.8452,452.67958 224.64665,438.00943 124.50253,420.35132 57.732388,325.01342 75.39329,224.85353 93.051413,124.70941 188.38929,57.939293 288.54919,75.600178 c 83.1867,14.668062 143.33984,82.936692 151.2036,163.045252 1.05568,10.75369 9.00619,19.54889 19.64704,21.42517 l 16.39508,2.8909 c 15.47033,2.72783 29.31638,-9.89358 28.09845,-25.55501 C 495.30276,126.88468 412.81792,31.909464 298.35038,12.344135 163.25548,-10.745634 35.788407,79.244086 12.273843,214.26611 -11.183886,348.96002 78.823282,477.28414 213.53315,501.03712 327.40944,521.11659 436.82207,460.04811 482.45463,359.37163 488.89477,345.1631 480.0523,328.6995 464.6893,325.99058 Z"
     id="path69890"
     style="fill:#322b1d;fill-opacity:1;stroke:#d09430;stroke-width:6;stroke-miterlimit:4;stroke-dasharray:none;stroke-opacity:0.58039216"
     inkscape:connector-curvature="0" />
</svg>
