<?xml version="1.0" encoding="UTF-8" standalone="no"?>
<svg
   xmlns:dc="http://purl.org/dc/elements/1.1/"
   xmlns:cc="http://creativecommons.org/ns#"
   xmlns:rdf="http://www.w3.org/1999/02/22-rdf-syntax-ns#"
   xmlns:svg="http://www.w3.org/2000/svg"
   xmlns="http://www.w3.org/2000/svg"
   xmlns:sodipodi="http://sodipodi.sourceforge.net/DTD/sodipodi-0.dtd"
   xmlns:inkscape="http://www.inkscape.org/namespaces/inkscape"
   class="svg-inline--fa fa-circle-notch fa-w-16 fa-3x"
   role="img"
   aria-hidden="true"
   viewBox="0 0 512 512"
   focusable="false"
   data-prefix="fas"
   data-icon="circle-notch"
   version="1.1"
   id="svg69892"
   sodipodi:docname="spinner-028.svg"
   inkscape:version="0.92.4 (5da689c313, 2019-01-14)">
  <metadata
     id="metadata69898">
    <rdf:RDF>
      <cc:Work
         rdf:about="">
        <dc:format>image/svg+xml</dc:format>
        <dc:type
           rdf:resource="http://purl.org/dc/dcmitype/StillImage" />
        <dc:title></dc:title>
      </cc:Work>
    </rdf:RDF>
  </metadata>
  <defs
     id="defs69896" />
  <sodipodi:namedview
     pagecolor="#ffffff"
     bordercolor="#666666"
     borderopacity="1"
     objecttolerance="10"
     gridtolerance="10"
     guidetolerance="10"
     inkscape:pageopacity="0"
     inkscape:pageshadow="2"
     inkscape:window-width="1002"
     inkscape:window-height="687"
     id="namedview69894"
     showgrid="false"
     inkscape:zoom="0.4609375"
     inkscape:cx="236.47458"
     inkscape:cy="256"
     inkscape:window-x="376"
     inkscape:window-y="62"
     inkscape:window-maximized="0"
     inkscape:current-layer="svg69892" />
  <path
     class=""
     d="m 47.766288,186.85632 16.40593,2.8928 c 10.63987,1.87609 21.117069,-3.66979 25.786708,-13.41199 C 124.74385,103.75684 204.61045,60.167299 287.80895,74.83744 387.9531,92.495577 454.72322,187.83346 437.06233,287.99338 419.40418,388.13749 324.06633,454.9076 223.90639,437.24672 140.7197,422.57865 80.566588,354.31 72.70283,274.20146 71.647119,263.44778 63.69664,254.65257 53.055785,252.77629 L 36.660694,249.88538 C 21.190386,247.15756 7.344317,259.77898 8.5622353,275.44043 17.152836,385.96221 99.637669,480.93742 214.10524,500.50276 349.20013,523.59253 476.6672,433.6028 500.18176,298.58078 523.6395,163.88687 433.63234,35.562748 298.92247,11.80977 185.04615,-8.2697085 75.633554,52.798773 30.000982,153.47525 c -6.440139,14.20852 2.402341,30.67213 17.765306,33.38107 z"
     id="path69890"
     style="fill:#322b1d;fill-opacity:1;stroke:#d09430;stroke-width:6;stroke-miterlimit:4;stroke-dasharray:none;stroke-opacity:0.58039216"
     inkscape:connector-curvature="0" />
</svg>
