<?xml version="1.0" encoding="UTF-8" standalone="no"?>
<svg
   xmlns:dc="http://purl.org/dc/elements/1.1/"
   xmlns:cc="http://creativecommons.org/ns#"
   xmlns:rdf="http://www.w3.org/1999/02/22-rdf-syntax-ns#"
   xmlns:svg="http://www.w3.org/2000/svg"
   xmlns="http://www.w3.org/2000/svg"
   xmlns:sodipodi="http://sodipodi.sourceforge.net/DTD/sodipodi-0.dtd"
   xmlns:inkscape="http://www.inkscape.org/namespaces/inkscape"
   class="svg-inline--fa fa-circle-notch fa-w-16 fa-3x"
   role="img"
   aria-hidden="true"
   viewBox="0 0 512 512"
   focusable="false"
   data-prefix="fas"
   data-icon="circle-notch"
   version="1.1"
   id="svg69892"
   sodipodi:docname="spinner-005.svg"
   inkscape:version="0.92.4 (5da689c313, 2019-01-14)">
  <metadata
     id="metadata69898">
    <rdf:RDF>
      <cc:Work
         rdf:about="">
        <dc:format>image/svg+xml</dc:format>
        <dc:type
           rdf:resource="http://purl.org/dc/dcmitype/StillImage" />
        <dc:title></dc:title>
      </cc:Work>
    </rdf:RDF>
  </metadata>
  <defs
     id="defs69896" />
  <sodipodi:namedview
     pagecolor="#ffffff"
     bordercolor="#666666"
     borderopacity="1"
     objecttolerance="10"
     gridtolerance="10"
     guidetolerance="10"
     inkscape:pageopacity="0"
     inkscape:pageshadow="2"
     inkscape:window-width="1002"
     inkscape:window-height="687"
     id="namedview69894"
     showgrid="false"
     inkscape:zoom="0.4609375"
     inkscape:cx="236.47458"
     inkscape:cy="256"
     inkscape:window-x="376"
     inkscape:window-y="62"
     inkscape:window-maximized="0"
     inkscape:current-layer="svg69892" />
  <path
     class=""
     d="m 443.41976,141.16378 -12.76154,10.7082 c -8.27634,6.94468 -10.76257,18.53551 -6.30123,28.3748 33.24044,73.30051 15.29471,162.50068 -49.42227,216.80467 -77.89828,65.36443 -193.85037,55.2313 -259.22509,-22.67926 -65.364423,-77.89831 -55.2313,-193.85037 22.67926,-259.2251 64.70777,-54.296265 155.67027,-56.494008 222.09172,-11.02521 8.91638,6.10364 20.76439,5.66664 29.0415,-1.27868 L 402.27522,92.142076 C 414.30901,82.044525 413.54052,63.32496 400.76029,54.190976 310.57374,-10.270298 184.79826,-8.1321317 96.232039,66.978739 -8.2930784,155.62562 -21.291204,311.11534 67.026795,415.91902 155.12998,520.46826 311.28745,534.00392 416.07312,446.0783 c 88.58003,-74.32746 112.12796,-197.39647 64.33734,-297.06663 -6.74473,-14.0665 -25.04041,-17.87538 -36.9907,-7.84789 z"
     id="path69890"
     style="fill:#322b1d;fill-opacity:1;stroke:#d09430;stroke-width:6;stroke-miterlimit:4;stroke-dasharray:none;stroke-opacity:0.58039216"
     inkscape:connector-curvature="0" />
</svg>
