<?xml version="1.0" encoding="UTF-8" standalone="no"?>
<svg
   xmlns:dc="http://purl.org/dc/elements/1.1/"
   xmlns:cc="http://creativecommons.org/ns#"
   xmlns:rdf="http://www.w3.org/1999/02/22-rdf-syntax-ns#"
   xmlns:svg="http://www.w3.org/2000/svg"
   xmlns="http://www.w3.org/2000/svg"
   xmlns:sodipodi="http://sodipodi.sourceforge.net/DTD/sodipodi-0.dtd"
   xmlns:inkscape="http://www.inkscape.org/namespaces/inkscape"
   class="svg-inline--fa fa-circle-notch fa-w-16 fa-3x"
   role="img"
   aria-hidden="true"
   viewBox="0 0 512 512"
   focusable="false"
   data-prefix="fas"
   data-icon="circle-notch"
   version="1.1"
   id="svg69892"
   sodipodi:docname="spinner-013.svg"
   inkscape:version="0.92.4 (5da689c313, 2019-01-14)">
  <metadata
     id="metadata69898">
    <rdf:RDF>
      <cc:Work
         rdf:about="">
        <dc:format>image/svg+xml</dc:format>
        <dc:type
           rdf:resource="http://purl.org/dc/dcmitype/StillImage" />
        <dc:title></dc:title>
      </cc:Work>
    </rdf:RDF>
  </metadata>
  <defs
     id="defs69896" />
  <sodipodi:namedview
     pagecolor="#ffffff"
     bordercolor="#666666"
     borderopacity="1"
     objecttolerance="10"
     gridtolerance="10"
     guidetolerance="10"
     inkscape:pageopacity="0"
     inkscape:pageshadow="2"
     inkscape:window-width="1002"
     inkscape:window-height="687"
     id="namedview69894"
     showgrid="false"
     inkscape:zoom="0.4609375"
     inkscape:cx="236.47458"
     inkscape:cy="256"
     inkscape:window-x="376"
     inkscape:window-y="62"
     inkscape:window-maximized="0"
     inkscape:current-layer="svg69892" />
  <path
     class=""
     d="m 402.18826,420.8222 -12.76154,-10.70821 c -8.27635,-6.94468 -20.12281,-7.38041 -29.03793,-1.27825 -66.41477,45.46392 -157.37602,43.28029 -222.093,-11.0237 C 60.397497,332.4476 50.241807,216.49749 115.61654,138.58692 180.98099,60.688639 296.93106,50.53296 374.84165,115.90769 c 64.70776,54.29626 82.66759,143.4952 49.42352,216.80312 -4.46259,9.84082 -1.97485,21.43293 6.30226,28.37826 l 12.7531,10.70114 c 12.03378,10.09753 30.33552,6.0901 37.11148,-8.08207 C 528.25324,263.69815 504.30688,140.20478 414.95774,66.026939 309.50701,-21.516837 154.12243,-7.3169888 66.247208,97.858228 -21.414737,202.77771 -7.6283048,358.91325 97.157374,446.83886 185.7374,521.16634 311.02576,522.9858 400.88295,458.61369 c 12.68159,-9.08487 13.25559,-27.76401 1.30531,-37.79149 z"
     id="path69890"
     style="fill:#322b1d;fill-opacity:1;stroke:#d09430;stroke-width:6;stroke-miterlimit:4;stroke-dasharray:none;stroke-opacity:0.58039216"
     inkscape:connector-curvature="0" />
</svg>
