<?xml version="1.0" encoding="UTF-8" standalone="no"?>
<svg
   xmlns:dc="http://purl.org/dc/elements/1.1/"
   xmlns:cc="http://creativecommons.org/ns#"
   xmlns:rdf="http://www.w3.org/1999/02/22-rdf-syntax-ns#"
   xmlns:svg="http://www.w3.org/2000/svg"
   xmlns="http://www.w3.org/2000/svg"
   xmlns:sodipodi="http://sodipodi.sourceforge.net/DTD/sodipodi-0.dtd"
   xmlns:inkscape="http://www.inkscape.org/namespaces/inkscape"
   class="svg-inline--fa fa-circle-notch fa-w-16 fa-3x"
   role="img"
   aria-hidden="true"
   viewBox="0 0 512 512"
   focusable="false"
   data-prefix="fas"
   data-icon="circle-notch"
   version="1.1"
   id="svg69892"
   sodipodi:docname="spinner-024.svg"
   inkscape:version="0.92.4 (5da689c313, 2019-01-14)">
  <metadata
     id="metadata69898">
    <rdf:RDF>
      <cc:Work
         rdf:about="">
        <dc:format>image/svg+xml</dc:format>
        <dc:type
           rdf:resource="http://purl.org/dc/dcmitype/StillImage" />
        <dc:title></dc:title>
      </cc:Work>
    </rdf:RDF>
  </metadata>
  <defs
     id="defs69896" />
  <sodipodi:namedview
     pagecolor="#ffffff"
     bordercolor="#666666"
     borderopacity="1"
     objecttolerance="10"
     gridtolerance="10"
     guidetolerance="10"
     inkscape:pageopacity="0"
     inkscape:pageshadow="2"
     inkscape:window-width="1002"
     inkscape:window-height="687"
     id="namedview69894"
     showgrid="false"
     inkscape:zoom="0.4609375"
     inkscape:cx="236.47458"
     inkscape:cy="256"
     inkscape:window-x="376"
     inkscape:window-y="62"
     inkscape:window-maximized="0"
     inkscape:current-layer="svg69892" />
  <path
     class=""
     d="m 51.917137,337.49031 14.427131,-8.32951 c 9.356543,-5.402 13.817723,-16.385 11.132709,-26.84954 -20.006921,-77.95905 13.15562,-162.68784 86.319163,-204.928824 88.0653,-50.844502 200.4962,-20.73046 251.34872,67.348694 50.84447,88.06528 20.73043,200.49614 -67.34872,251.34869 -73.15316,42.23498 -163.11536,28.60384 -220.63212,-27.70814 -7.72106,-7.5592 -19.46493,-9.18625 -28.822347,-3.78375 l -14.417612,8.32399 c -13.604348,7.8545 -16.098169,26.42313 -5.0982,37.63764 77.622819,79.14268 201.858759,98.87767 302.122359,40.28726 C 499.27873,401.68728 539.07988,250.8169 470.3026,132.26916 401.69269,14.0093 250.25805,-26.437193 131.79619,41.956801 31.655029,99.773315 -12.905825,216.88355 16.851191,323.33826 c 4.199628,15.024 21.555965,21.95202 35.065946,14.15205 z"
     id="path69890"
     style="fill:#322b1d;fill-opacity:1;stroke:#d09430;stroke-width:6;stroke-miterlimit:4;stroke-dasharray:none;stroke-opacity:0.58039216"
     inkscape:connector-curvature="0" />
</svg>
