<?xml version="1.0" encoding="UTF-8" standalone="no"?>
<svg
   xmlns:dc="http://purl.org/dc/elements/1.1/"
   xmlns:cc="http://creativecommons.org/ns#"
   xmlns:rdf="http://www.w3.org/1999/02/22-rdf-syntax-ns#"
   xmlns:svg="http://www.w3.org/2000/svg"
   xmlns="http://www.w3.org/2000/svg"
   xmlns:sodipodi="http://sodipodi.sourceforge.net/DTD/sodipodi-0.dtd"
   xmlns:inkscape="http://www.inkscape.org/namespaces/inkscape"
   class="svg-inline--fa fa-circle-notch fa-w-16 fa-3x"
   role="img"
   aria-hidden="true"
   viewBox="0 0 512 512"
   focusable="false"
   data-prefix="fas"
   data-icon="circle-notch"
   version="1.1"
   id="svg69892"
   sodipodi:docname="spinner-023.svg"
   inkscape:version="0.92.4 (5da689c313, 2019-01-14)">
  <metadata
     id="metadata69898">
    <rdf:RDF>
      <cc:Work
         rdf:about="">
        <dc:format>image/svg+xml</dc:format>
        <dc:type
           rdf:resource="http://purl.org/dc/dcmitype/StillImage" />
        <dc:title></dc:title>
      </cc:Work>
    </rdf:RDF>
  </metadata>
  <defs
     id="defs69896" />
  <sodipodi:namedview
     pagecolor="#ffffff"
     bordercolor="#666666"
     borderopacity="1"
     objecttolerance="10"
     gridtolerance="10"
     guidetolerance="10"
     inkscape:pageopacity="0"
     inkscape:pageshadow="2"
     inkscape:window-width="1002"
     inkscape:window-height="687"
     id="namedview69894"
     showgrid="false"
     inkscape:zoom="0.4609375"
     inkscape:cx="236.47458"
     inkscape:cy="256"
     inkscape:window-x="376"
     inkscape:window-y="62"
     inkscape:window-maximized="0"
     inkscape:current-layer="svg69892" />
  <path
     class=""
     d="m 69.035841,371.68312 12.761546,-10.70821 c 8.276348,-6.94468 10.762575,-18.5355 6.301205,-28.37481 -33.240418,-73.30051 -15.29469,-162.50069 49.422268,-216.80466 77.89833,-65.364438 193.8504,-55.231317 259.22514,22.67927 65.36441,77.89832 55.23128,193.85035 -22.6793,259.22512 -64.70777,54.29625 -155.67026,56.49397 -222.09169,11.02518 -8.9164,-6.10362 -20.76439,-5.66665 -29.04151,1.27868 l -12.75313,10.70112 c -12.033749,10.09754 -11.265274,28.81712 1.51496,37.95113 90.18654,64.46126 215.962,62.32309 304.52825,-12.78779 C 520.74869,357.22127 533.74681,201.73155 445.42881,96.927867 357.32563,-7.6213728 201.16816,-21.157043 96.382492,66.768579 7.802437,141.09606 -15.745458,264.16504 32.045148,363.83521 c 6.744715,14.06649 25.04041,17.87537 36.990693,7.84791 z"
     id="path69890"
     style="fill:#322b1d;fill-opacity:1;stroke:#d09430;stroke-width:6;stroke-miterlimit:4;stroke-dasharray:none;stroke-opacity:0.58039216"
     inkscape:connector-curvature="0" />
</svg>
