<?xml version="1.0" encoding="UTF-8" standalone="no"?>
<svg
   xmlns:dc="http://purl.org/dc/elements/1.1/"
   xmlns:cc="http://creativecommons.org/ns#"
   xmlns:rdf="http://www.w3.org/1999/02/22-rdf-syntax-ns#"
   xmlns:svg="http://www.w3.org/2000/svg"
   xmlns="http://www.w3.org/2000/svg"
   xmlns:sodipodi="http://sodipodi.sourceforge.net/DTD/sodipodi-0.dtd"
   xmlns:inkscape="http://www.inkscape.org/namespaces/inkscape"
   class="svg-inline--fa fa-coins fa-w-16 fa-3x"
   role="img"
   aria-hidden="true"
   viewBox="0 0 512 512"
   focusable="false"
   data-prefix="fal"
   data-icon="coins"
   version="1.1"
   id="svg71516"
   sodipodi:docname="stakeReward.svg"
   inkscape:version="0.92.4 (5da689c313, 2019-01-14)">
  <metadata
     id="metadata71522">
    <rdf:RDF>
      <cc:Work
         rdf:about="">
        <dc:format>image/svg+xml</dc:format>
        <dc:type
           rdf:resource="http://purl.org/dc/dcmitype/StillImage" />
        <dc:title></dc:title>
      </cc:Work>
    </rdf:RDF>
  </metadata>
  <defs
     id="defs71520" />
  <sodipodi:namedview
     pagecolor="#ffffff"
     bordercolor="#666666"
     borderopacity="1"
     objecttolerance="10"
     gridtolerance="10"
     guidetolerance="10"
     inkscape:pageopacity="0"
     inkscape:pageshadow="2"
     inkscape:window-width="1254"
     inkscape:window-height="716"
     id="namedview71518"
     showgrid="false"
     inkscape:zoom="0.4609375"
     inkscape:cx="256"
     inkscape:cy="256"
     inkscape:window-x="243"
     inkscape:window-y="114"
     inkscape:window-maximized="0"
     inkscape:current-layer="svg71516" />
  <path
     class=""
     fill="currentColor"
     d="M 336 32 c -48.6 0 -92.6 9 -124.5 23.4 c -0.9 0.4 -51.5 21 -51.5 56.6 v 16.7 C 76.1 132.2 0 163.4 0 208 v 192 c 0 44.2 78.8 80 176 80 s 176 -35.8 176 -80 v -16.4 c 89.7 -3.7 160 -37.9 160 -79.6 V 112 c 0 -37 -62.1 -80 -176 -80 Z m -16 368 c 0 13.9 -50.5 48 -144 48 S 32 413.9 32 400 v -50.1 c 31.8 20.6 84.4 34.1 144 34.1 s 112.2 -13.5 144 -34.1 V 400 Z m 0 -96 c 0 13.9 -50.5 48 -144 48 S 32 317.9 32 304 v -50.1 c 31.8 20.6 84.4 34.1 144 34.1 s 112.2 -13.5 144 -34.1 V 304 Z m -144 -48 c -81 0 -146.7 -21.5 -146.7 -48 S 95 160 176 160 s 146.7 21.5 146.7 48 S 257 256 176 256 Z m 304 48 c 0 13.1 -45 43.6 -128 47.3 v -64.1 c 52.8 -2.2 99.1 -14.6 128 -33.3 V 304 Z m 0 -96 c 0 13.1 -45.1 43.4 -128 47.2 V 208 c 0 -5.6 -1.7 -11 -4.1 -16.3 c 54.6 -1.7 102.4 -14.5 132.1 -33.8 V 208 Z m -144 -48 c -7.3 0 -14 -0.5 -20.9 -0.9 c -36.9 -21.7 -85 -28.2 -115.6 -30 c -6.3 -5.3 -10.1 -11 -10.1 -17.1 c 0 -26.5 65.7 -48 146.7 -48 s 146.7 21.5 146.7 48 S 417 160 336 160 Z"
     id="path71514"
     style="fill:#322b1d;fill-opacity:1;stroke:#d09430;stroke-opacity:0.34509805;stroke-width:6;stroke-miterlimit:4;stroke-dasharray:none" />
  <path
     style="opacity:1;fill:#524022;fill-opacity:1;fill-rule:evenodd;stroke:none;stroke-width:13.0169487;stroke-miterlimit:4;stroke-dasharray:none;stroke-dashoffset:0;stroke-opacity:1"
     d="m 302.08738,148.77856 c -19.60679,-9.37062 -47.24457,-16.83546 -76.16649,-20.57224 -20.58623,-2.65979 -25.9433,-4.10457 -29.03953,-7.83185 -5.25203,-6.32246 -4.75815,-11.29206 1.90971,-19.21637 18.25162,-21.69081 76.84362,-34.087215 151.1255,-31.973866 61.39453,1.746698 102.23586,11.775909 121.1241,29.743859 10.78921,10.263517 10.78921,15.771827 0,26.035337 -18.54967,17.64589 -60.13093,28.06085 -117.41355,29.40889 l -37.9661,0.89345 z"
     id="path72624"
     inkscape:connector-curvature="0" />
  <path
     style="opacity:1;fill:#524022;fill-opacity:1;fill-rule:evenodd;stroke:none;stroke-width:13.0169487;stroke-miterlimit:4;stroke-dasharray:none;stroke-dashoffset:0;stroke-opacity:1"
     d="M 138.93427,250.68831 C 89.183913,245.92568 51.236408,233.62606 38.090027,218.00248 28.310684,206.38039 32.781634,197.31926 53.831474,186.09981 97.855972,162.635 196.90258,156.80441 263.68874,173.74611 c 34.21386,8.67906 55.22651,21.89758 55.22651,34.7416 0,15.70515 -36.27921,32.57855 -85.69491,39.85654 -22.81772,3.36062 -71.12244,4.56153 -94.28607,2.34406 z"
     id="path72626"
     inkscape:connector-curvature="0" />
  <path
     style="opacity:1;fill:#524022;fill-opacity:1;fill-rule:evenodd;stroke:none;stroke-width:13.0169487;stroke-miterlimit:4;stroke-dasharray:none;stroke-dashoffset:0;stroke-opacity:1"
     d="M 135.59322,346.06287 C 97.442013,341.43483 57.673311,327.25835 42.379922,312.83483 l -7.668058,-7.23191 V 283.6218 c 0,-12.08962 0.273706,-21.98112 0.608236,-21.98112 0.334529,0 8.388767,3.26191 17.898306,7.24868 37.974153,15.92027 72.066174,21.94234 123.595154,21.83204 52.5486,-0.11248 89.14221,-6.81726 124.50347,-22.81185 7.62266,-3.44788 14.21249,-6.26887 14.64407,-6.26887 0.43156,0 0.78466,9.68781 0.78466,21.52846 0,19.67802 -0.45661,22.0711 -5.31224,27.8417 -10.05286,11.94714 -41.2458,25.25463 -75.02092,32.00532 -20.41995,4.08137 -77.95691,5.82011 -100.81938,3.04671 z"
     id="path72628"
     inkscape:connector-curvature="0" />
  <path
     style="opacity:1;fill:#524022;fill-opacity:1;fill-rule:evenodd;stroke:none;stroke-width:13.0169487;stroke-miterlimit:4;stroke-dasharray:none;stroke-dashoffset:0;stroke-opacity:1"
     d="m 126.91525,440.68099 c -38.503127,-6.13994 -75.39179,-20.54632 -86.542305,-33.79795 -5.269468,-6.26241 -5.661081,-8.21708 -5.661081,-28.25627 0,-11.84066 0.378526,-21.52846 0.841169,-21.52846 0.462643,0 7.052473,2.88319 14.644068,6.40709 67.102789,31.14809 182.700229,31.61323 248.954799,1.00174 8.81948,-4.07486 16.38609,-7.40883 16.81465,-7.40883 0.42856,0 0.77921,10.05933 0.77921,22.35407 v 22.35408 l -7.05084,6.70954 c -14.97867,14.25359 -47.39699,26.47541 -85.15255,32.1028 -25.94616,3.86723 -73.57571,3.89757 -97.62712,0.0622 z"
     id="path72630"
     inkscape:connector-curvature="0" />
  <path
     style="opacity:1;fill:#524022;fill-opacity:1;fill-rule:evenodd;stroke:none;stroke-width:13.0169487;stroke-miterlimit:4;stroke-dasharray:none;stroke-dashoffset:0;stroke-opacity:1"
     d="m 355.79661,318.36752 v -28.52345 l 9.22034,-0.009 c 5.07119,-0.005 18.00678,-1.44621 28.74576,-3.20313 31.13788,-5.09427 40.05895,-7.78263 80.81356,-24.35318 2.06191,-0.83836 2.71187,4.08253 2.71187,20.53183 0,27.08446 -1.73166,29.63931 -28.9392,42.69626 -22.99773,11.03665 -49.15267,18.04783 -74.63317,20.00642 l -17.91916,1.37738 z"
     id="path72632"
     inkscape:connector-curvature="0" />
  <path
     style="opacity:1;fill:#524022;fill-opacity:1;fill-rule:evenodd;stroke:none;stroke-width:13.0169487;stroke-miterlimit:4;stroke-dasharray:none;stroke-dashoffset:0;stroke-opacity:1"
     d="m 355.76699,227.75151 c -0.0163,-12.9813 -0.6183,-25.79897 -1.33778,-28.48371 -1.21018,-4.51578 -0.59866,-4.88201 8.16522,-4.89008 25.55267,-0.0235 73.22267,-11.03361 98.96489,-22.85737 l 15.72882,-7.22446 v 20.57674 c 0,13.45927 -1.05547,22.60314 -3.05137,26.43511 -8.29694,15.9294 -56.55935,34.02761 -102.71135,38.51634 l -15.72881,1.52978 z"
     id="path72634"
     inkscape:connector-curvature="0" />
</svg>
