<?xml version="1.0" encoding="UTF-8" standalone="no"?>
<svg
   xmlns:dc="http://purl.org/dc/elements/1.1/"
   xmlns:cc="http://creativecommons.org/ns#"
   xmlns:rdf="http://www.w3.org/1999/02/22-rdf-syntax-ns#"
   xmlns:svg="http://www.w3.org/2000/svg"
   xmlns="http://www.w3.org/2000/svg"
   xmlns:sodipodi="http://sodipodi.sourceforge.net/DTD/sodipodi-0.dtd"
   xmlns:inkscape="http://www.inkscape.org/namespaces/inkscape"
   class="svg-inline--fa fa-sync fa-w-16 fa-3x"
   role="img"
   aria-hidden="true"
   viewBox="0 0 512 512"
   focusable="false"
   data-prefix="fas"
   data-icon="sync"
   version="1.1"
   id="svg75653"
   sodipodi:docname="txInOut.svg"
   inkscape:version="0.92.4 (5da689c313, 2019-01-14)">
  <metadata
     id="metadata75659">
    <rdf:RDF>
      <cc:Work
         rdf:about="">
        <dc:format>image/svg+xml</dc:format>
        <dc:type
           rdf:resource="http://purl.org/dc/dcmitype/StillImage" />
        <dc:title></dc:title>
      </cc:Work>
    </rdf:RDF>
  </metadata>
  <defs
     id="defs75657" />
  <sodipodi:namedview
     pagecolor="#ffffff"
     bordercolor="#666666"
     borderopacity="1"
     objecttolerance="10"
     gridtolerance="10"
     guidetolerance="10"
     inkscape:pageopacity="0"
     inkscape:pageshadow="2"
     inkscape:window-width="730"
     inkscape:window-height="480"
     id="namedview75655"
     showgrid="false"
     inkscape:zoom="0.4609375"
     inkscape:cx="256"
     inkscape:cy="256"
     inkscape:window-x="0"
     inkscape:window-y="0"
     inkscape:window-maximized="0"
     inkscape:current-layer="svg75653" />
  <path
     class=""
     fill="currentColor"
     d="M 440.65 12.57 l 4 82.77 A 247.16 247.16 0 0 0 255.83 8 C 134.73 8 33.91 94.92 12.29 209.82 A 12 12 0 0 0 24.09 224 h 49.05 a 12 12 0 0 0 11.67 -9.26 a 175.91 175.91 0 0 1 317 -56.94 l -101.46 -4.86 a 12 12 0 0 0 -12.57 12 v 47.41 a 12 12 0 0 0 12 12 H 500 a 12 12 0 0 0 12 -12 V 12 a 12 12 0 0 0 -12 -12 h -47.37 a 12 12 0 0 0 -11.98 12.57 Z M 255.83 432 a 175.61 175.61 0 0 1 -146 -77.8 l 101.8 4.87 a 12 12 0 0 0 12.57 -12 v -47.4 a 12 12 0 0 0 -12 -12 H 12 a 12 12 0 0 0 -12 12 V 500 a 12 12 0 0 0 12 12 h 47.35 a 12 12 0 0 0 12 -12.6 l -4.15 -82.57 A 247.17 247.17 0 0 0 255.83 504 c 121.11 0 221.93 -86.92 243.55 -201.82 a 12 12 0 0 0 -11.8 -14.18 h -49.05 a 12 12 0 0 0 -11.67 9.26 A 175.86 175.86 0 0 1 255.83 432 Z"
     id="path75651"
     style="fill:#322b1d;fill-opacity:1;stroke:#585858;stroke-opacity:0.34509805;stroke-width:6;stroke-miterlimit:4;stroke-dasharray:none" />
</svg>
