<?xml version="1.0" encoding="UTF-8" standalone="no"?>
<svg
   xmlns:dc="http://purl.org/dc/elements/1.1/"
   xmlns:cc="http://creativecommons.org/ns#"
   xmlns:rdf="http://www.w3.org/1999/02/22-rdf-syntax-ns#"
   xmlns:svg="http://www.w3.org/2000/svg"
   xmlns="http://www.w3.org/2000/svg"
   xmlns:sodipodi="http://sodipodi.sourceforge.net/DTD/sodipodi-0.dtd"
   xmlns:inkscape="http://www.inkscape.org/namespaces/inkscape"
   class="svg-inline--fa fa-wallet fa-w-16 fa-3x"
   role="img"
   aria-hidden="true"
   viewBox="0 0 518 454"
   focusable="false"
   data-prefix="fal"
   data-icon="wallet"
   version="1.1"
   id="svg84620"
   sodipodi:docname="walletConfig.svg"
   width="518"
   height="454"
   inkscape:version="0.92.4 (5da689c313, 2019-01-14)">
  <metadata
     id="metadata84626">
    <rdf:RDF>
      <cc:Work
         rdf:about="">
        <dc:format>image/svg+xml</dc:format>
        <dc:type
           rdf:resource="http://purl.org/dc/dcmitype/StillImage" />
        <dc:title></dc:title>
      </cc:Work>
    </rdf:RDF>
  </metadata>
  <defs
     id="defs84624" />
  <sodipodi:namedview
     pagecolor="#ffffff"
     bordercolor="#666666"
     borderopacity="1"
     objecttolerance="10"
     gridtolerance="10"
     guidetolerance="10"
     inkscape:pageopacity="0"
     inkscape:pageshadow="2"
     inkscape:window-width="1311"
     inkscape:window-height="689"
     id="namedview84622"
     showgrid="false"
     inkscape:zoom="0.4609375"
     inkscape:cx="259"
     inkscape:cy="227"
     inkscape:window-x="-3"
     inkscape:window-y="13"
     inkscape:window-maximized="0"
     inkscape:current-layer="svg84620" />
  <path
     class=""
     d="M 467,67 H 451 V 51 C 451,24.49 429.51,3 403,3 H 99 C 45.98,3 3,45.98 3,99 v 256 c 0,53.02 42.98,96 96,96 h 352 c 35.35,0 64,-28.65 64,-64 V 115 C 515,88.49 493.51,67 467,67 Z m 16,320 c 0,17.64 -14.36,32 -32,32 H 99 C 63.71,419 35,390.29 35,355 V 99 C 35,63.71 63.71,35 99,35 h 304 c 8.82,0 16,7.18 16,16 V 67 H 115 c -8.84,0 -16,7.16 -16,16 0,8.84 7.16,16 16,16 h 352 c 8.82,0 16,7.18 16,16 z"
     id="path84618"
     inkscape:connector-curvature="0"
     style="fill:#322b1d;fill-opacity:1;stroke:#585858;stroke-width:6;stroke-miterlimit:4;stroke-dasharray:none;stroke-opacity:0.34509804"
     sodipodi:nodetypes="scsssssssssssssssssscssssss" />
  <path
     inkscape:connector-curvature="0"
     style="fill:currentColor;stroke-width:0.58047307"
     class=""
     d="m 245.85204,163.47552 v 28.32708 l 17.24005,17.24005 c -3.94722,-20.20046 2.03165,-40.80726 16.54348,-55.31908 11.78361,-11.78361 27.39833,-18.11076 43.53549,-18.11076 h 0.69656 l -33.31916,33.20306 8.76514,52.59086 52.59087,8.76514 33.26111,-33.26111 c 0.17415,16.4274 -6.15301,32.21626 -18.11076,44.17401 -5.3984,5.3984 -11.72556,9.51976 -18.45904,12.53823 1.04484,0.92875 2.26384,1.68336 3.25064,2.67017 l 17.82053,17.82053 c 6.09497,-3.65699 11.89971,-8.06859 17.06591,-13.29284 22.11603,-22.11603 31.17141,-54.73863 23.62526,-85.09736 -1.74142,-7.08178 -7.19787,-12.65431 -14.16354,-14.62792 -7.08178,-1.97361 -14.62792,0.0581 -19.73609,5.22425 l -34.07378,34.01572 -18.80732,-3.13455 -3.13456,-18.80733 34.01573,-34.01572 c 5.16621,-5.16622 7.13981,-12.71236 5.16621,-19.73609 -1.91557,-7.02372 -7.54616,-12.48017 -14.62793,-14.22158 -30.88117,-7.66225 -62.63305,1.16094 -85.09736,23.5672 -5.92082,5.92083 -10.73875,12.59626 -14.68597,19.67804 l 0.63853,0.46438 z m -68.49583,207.75132 c -7.43006,7.43006 -20.4907,7.43006 -27.92076,0 -3.71502,-3.71502 -5.80473,-8.70709 -5.80473,-13.93136 0,-5.2823 2.03166,-10.21632 5.80473,-13.93135 l 78.01559,-78.01558 -19.67804,-19.67804 -78.01559,77.95753 c -8.99733,8.99734 -13.93135,20.95508 -13.93135,33.66744 0,12.71236 4.93402,24.67012 13.93135,33.66745 8.99734,8.99733 20.95509,13.93135 33.66745,13.93135 12.71236,0 24.6701,-4.93402 33.66744,-13.93135 l 58.56973,-58.56974 c -5.63059,-9.17148 -8.82319,-19.61998 -9.11343,-30.24265 z m 229.34493,-33.84158 -67.97341,-67.9734 C 325.3188,256.00293 305.29248,253.3908 289.15533,261.34329 L 227.2769,199.46485 v -36.04738 l -74.30056,-55.72542 -37.15028,37.15028 55.72542,74.30056 h 36.04738 l 61.87844,61.87844 c -7.89444,16.13715 -5.34037,36.16347 8.06857,49.57239 l 67.9734,67.97341 c 8.47491,8.47491 22.17408,8.47491 30.59094,0 l 30.59093,-30.59093 c 8.41686,-8.47491 8.41686,-22.17408 0,-30.59094 z"
     id="path85008" />
  <path
     style="opacity:1;fill:#524022;fill-opacity:1;fill-rule:evenodd;stroke:#d09430;stroke-width:13.0169487;stroke-miterlimit:4;stroke-dasharray:none;stroke-dashoffset:0;stroke-opacity:0.34509804"
     d="M 86.405963,413.83379 C 66.104312,409.80348 46.473133,391.35979 40.819683,371.00501 39.420821,365.96852 38.599398,312.97986 38.59176,227.28529 38.577763,70.246731 37.971243,75.89493 56.878851,56.987325 75.989447,37.876729 67.470604,38.688136 248.99945,38.688136 c 124.92164,0 158.35437,0.57759 161.37726,2.787983 2.10746,1.541019 4.36137,6.877867 5.03929,11.932204 l 1.2265,9.144219 H 265.90091 c -104.72873,0 -152.84718,0.73402 -157.6397,2.404702 -7.12618,2.484202 -13.274769,11.353256 -13.274769,19.148246 0,2.42687 2.848442,7.60078 6.329869,11.49757 l 6.32988,7.08508 182.95827,0.56803 c 168.38864,0.5228 183.1742,0.85815 185.67012,4.21126 2.10421,2.8269 2.71186,35.19598 2.71186,144.46003 0,155.37089 0.42127,150.44612 -13.59438,158.9238 -6.80264,4.11472 -12.51938,4.25363 -188.16833,4.57246 -99.6339,0.18094 -185.501895,-0.53462 -190.817767,-1.58993 z m 97.474587,-13.00033 c 6.35813,-2.88408 20.43914,-15.0318 40.80969,-35.2066 32.7034,-32.38914 32.04767,-31.26309 26.78121,-45.98957 -1.28016,-3.57966 -2.90007,-9.34454 -3.59982,-12.81085 -1.2441,-6.16294 -2.10057,-5.47894 -38.71078,30.91525 -35.043,34.83622 -37.95641,37.21763 -45.5322,37.21763 -10.51837,0 -18.7439,-7.75558 -18.7439,-17.673 0,-6.2177 4.72542,-11.77086 41.22033,-48.44073 22.67119,-22.77988 41.22034,-42.40311 41.22034,-43.60717 0,-1.20409 -4.40882,-6.51618 -9.79739,-11.80466 l -9.79739,-9.61541 -40.24524,40.07895 c -47.24996,47.05475 -51.91941,53.69689 -51.81569,73.70609 0.0797,15.36753 3.21921,23.27038 13.28478,33.44035 13.96434,14.10918 36.53494,18.13202 54.92606,9.78972 z M 389.19984,387.4887 c 20.28807,-19.47733 24.70185,-26.03412 24.70185,-36.69517 0,-6.20683 -4.61292,-11.67332 -39.59322,-46.91957 -21.77627,-21.94183 -42.26113,-41.29953 -45.52194,-43.01709 -8.68165,-4.57292 -24.11971,-6.1353 -32.33286,-3.27218 l -7.14433,2.49053 -30.99195,-30.93667 -30.99197,-30.93666 -0.0873,-18.46874 -0.0873,-18.46874 -37.25887,-27.72389 -37.25887,-27.72389 -19.29951,19.29952 -19.29952,19.29951 28.70955,38.25488 28.70955,38.25488 h 18.74489 18.7449 l 29.90415,29.9615 c 28.73155,28.78664 29.81506,30.19584 27.63194,35.93785 -3.47444,9.13848 -2.64085,20.94221 2.23866,31.69979 4.60711,10.15701 66.3132,74.75048 79.01457,82.71184 3.57966,2.24377 10.1924,4.08324 14.69497,4.08769 7.30327,0.007 10.19168,-1.91696 26.77267,-17.83539 z m -6.16148,-122.26977 c 24.16095,-21.1354 35.78773,-56.14984 28.75567,-86.59859 -2.6758,-11.58614 -10.84409,-18.44068 -21.97508,-18.44068 -7.95702,0 -10.28148,1.57408 -28.8476,19.5351 -19.21408,18.58789 -20.55059,19.4655 -27.56363,18.09953 -8.65468,-1.68571 -10.54646,-3.92505 -10.59145,-12.53737 -0.0263,-5.04116 3.55056,-10.03198 17.24559,-24.06267 18.35216,-18.802 22.73779,-26.41066 20.66436,-35.8509 -2.08759,-9.50475 -9.86075,-14.99319 -24.59526,-17.36611 -32.259,-5.19516 -65.8526,8.8601 -85.31342,35.69437 -5.67074,7.8193 -6.13618,9.96549 -6.13618,28.29406 v 19.83295 l 9.35751,9.18372 9.35754,9.18372 0.12952,-13.76194 c 0.2785,-29.60953 20.30266,-52.97323 50.57915,-59.01456 7.56086,-1.50868 7.52493,-1.44572 -8.4263,14.76778 l -16.01953,16.28291 3.93872,25.11455 c 2.16628,13.813 4.49371,25.98375 5.17206,27.04611 0.67834,1.06236 12.94861,3.92318 27.26726,6.35738 l 26.0339,4.42582 L 367.8,215.91398 c 13.98741,-13.77514 15.72647,-14.89566 15.70762,-10.1207 -0.0514,13.01219 -20.27331,41.48736 -32.68038,46.01826 -2.21216,0.80786 -0.0241,4.29957 7.67087,12.24073 5.92124,6.11074 11.3075,11.11044 11.96945,11.11044 0.66198,0 6.31882,-4.4747 12.5708,-9.94378 z"
     id="path85576"
     inkscape:connector-curvature="0" />
</svg>
